<svg width="487" height="506" viewBox="0 0 487 506" fill="none" xmlns="http://www.w3.org/2000/svg">
<path d="M340.772 76.4194H145.772V6.08398C145.774 4.59877 146.724 3.17489 148.411 2.12469C150.098 1.07449 152.386 0.483741 154.772 0.48204H331.772C334.158 0.483739 336.445 1.07449 338.133 2.12469C339.82 3.17489 340.769 4.59877 340.772 6.08398V76.4194ZM147.772 75.1745H338.772V6.08398C338.77 4.92881 338.031 3.82133 336.719 3.0045C335.407 2.18767 333.628 1.72821 331.772 1.72692H154.772C152.916 1.72821 151.137 2.18767 149.824 3.0045C148.512 3.82133 147.774 4.92881 147.772 6.08398V75.1745Z" fill="#3F3D56"/>
<path d="M49.0314 81.9761L49.7716 83.0166C50.0996 83.4656 50.2711 83.9642 50.2716 84.4704V112.62H85.2716V84.4704C85.2721 83.9642 85.4436 83.4656 85.7716 83.0166L86.5119 81.9761H49.0314ZM83.2716 84.4704V111.195H52.2716V84.4704C52.2722 84.1102 52.2117 83.7513 52.0915 83.4014H83.4518C83.3316 83.7513 83.2711 84.1102 83.2716 84.4704ZM93.0314 81.9761L93.7716 83.0166C94.0996 83.4656 94.2711 83.9642 94.2716 84.4704V112.62H129.272V84.4704C129.272 83.9642 129.444 83.4656 129.772 83.0166L130.512 81.9761H93.0314ZM127.272 84.4704V111.195H96.2716V84.4704C96.2722 84.1102 96.2117 83.7513 96.0915 83.4014H127.452C127.332 83.7513 127.271 84.1102 127.272 84.4704ZM137.031 81.9761L137.772 83.0166C138.1 83.4656 138.271 83.9642 138.272 84.4704V112.62H173.272V84.4704C173.272 83.9642 173.444 83.4656 173.772 83.0166L174.512 81.9761H137.031ZM171.272 84.4704V111.195H140.272V84.4704C140.272 84.1102 140.212 83.7513 140.091 83.4014H171.452C171.332 83.7513 171.271 84.1102 171.272 84.4704ZM181.031 81.9761L181.772 83.0166C182.1 83.4656 182.271 83.9642 182.272 84.4704V112.62H217.272V84.4704C217.272 83.9642 217.444 83.4656 217.772 83.0166L218.512 81.9761H181.031ZM215.272 84.4704V111.195H184.272V84.4704C184.272 84.1102 184.212 83.7513 184.091 83.4014H215.452C215.332 83.7513 215.271 84.1102 215.272 84.4704ZM225.031 81.9761L225.772 83.0166C226.1 83.4656 226.271 83.9642 226.272 84.4704V112.62H261.272V84.4704C261.272 83.9642 261.444 83.4656 261.772 83.0166L262.512 81.9761H225.031ZM259.272 84.4704V111.195H228.272V84.4704C228.272 84.1102 228.212 83.7513 228.091 83.4014H259.452C259.332 83.7513 259.271 84.1102 259.272 84.4704ZM269.031 81.9761L269.772 83.0166C270.1 83.4656 270.271 83.9642 270.272 84.4704V112.62H305.272V84.4704C305.272 83.9642 305.444 83.4656 305.772 83.0166L306.512 81.9761H269.031ZM303.272 84.4704V111.195H272.272V84.4704C272.272 84.1102 272.212 83.7513 272.091 83.4014H303.452C303.332 83.7513 303.271 84.1102 303.272 84.4704ZM313.031 81.9761L313.772 83.0166C314.1 83.4656 314.271 83.9642 314.272 84.4704V112.62H349.272V84.4704C349.272 83.9642 349.444 83.4656 349.772 83.0166L350.512 81.9761H313.031ZM347.272 84.4704V111.195H316.272V84.4704C316.272 84.1102 316.212 83.7513 316.091 83.4014H347.452C347.332 83.7513 347.271 84.1102 347.272 84.4704ZM357.031 81.9761L357.772 83.0166C358.1 83.4656 358.271 83.9642 358.272 84.4704V112.62H393.272V84.4704C393.272 83.9642 393.444 83.4656 393.772 83.0166L394.512 81.9761H357.031ZM391.272 84.4704V111.195H360.272V84.4704C360.272 84.1102 360.212 83.7513 360.091 83.4014H391.452C391.332 83.7513 391.271 84.1102 391.272 84.4704ZM401.031 81.9761L401.772 83.0166C402.1 83.4656 402.271 83.9642 402.272 84.4704V112.62H437.272V84.4704C437.272 83.9642 437.444 83.4656 437.772 83.0166L438.512 81.9761H401.031ZM435.272 84.4704V111.195H404.272V84.4704C404.272 84.1102 404.212 83.7513 404.091 83.4014H435.452C435.332 83.7513 435.271 84.1102 435.272 84.4704ZM401.031 81.9761L401.772 83.0166C402.1 83.4656 402.271 83.9642 402.272 84.4704V112.62H437.272V84.4704C437.272 83.9642 437.444 83.4656 437.772 83.0166L438.512 81.9761H401.031ZM435.272 84.4704V111.195H404.272V84.4704C404.272 84.1102 404.212 83.7513 404.091 83.4014H435.452C435.332 83.7513 435.271 84.1102 435.272 84.4704ZM357.031 81.9761L357.772 83.0166C358.1 83.4656 358.271 83.9642 358.272 84.4704V112.62H393.272V84.4704C393.272 83.9642 393.444 83.4656 393.772 83.0166L394.512 81.9761H357.031ZM391.272 84.4704V111.195H360.272V84.4704C360.272 84.1102 360.212 83.7513 360.091 83.4014H391.452C391.332 83.7513 391.271 84.1102 391.272 84.4704ZM313.031 81.9761L313.772 83.0166C314.1 83.4656 314.271 83.9642 314.272 84.4704V112.62H349.272V84.4704C349.272 83.9642 349.444 83.4656 349.772 83.0166L350.512 81.9761H313.031ZM347.272 84.4704V111.195H316.272V84.4704C316.272 84.1102 316.212 83.7513 316.091 83.4014H347.452C347.332 83.7513 347.271 84.1102 347.272 84.4704ZM269.031 81.9761L269.772 83.0166C270.1 83.4656 270.271 83.9642 270.272 84.4704V112.62H305.272V84.4704C305.272 83.9642 305.444 83.4656 305.772 83.0166L306.512 81.9761H269.031ZM303.272 84.4704V111.195H272.272V84.4704C272.272 84.1102 272.212 83.7513 272.091 83.4014H303.452C303.332 83.7513 303.271 84.1102 303.272 84.4704ZM225.031 81.9761L225.772 83.0166C226.1 83.4656 226.271 83.9642 226.272 84.4704V112.62H261.272V84.4704C261.272 83.9642 261.444 83.4656 261.772 83.0166L262.512 81.9761H225.031ZM259.272 84.4704V111.195H228.272V84.4704C228.272 84.1102 228.212 83.7513 228.091 83.4014H259.452C259.332 83.7513 259.271 84.1102 259.272 84.4704ZM181.031 81.9761L181.772 83.0166C182.1 83.4656 182.271 83.9642 182.272 84.4704V112.62H217.272V84.4704C217.272 83.9642 217.444 83.4656 217.772 83.0166L218.512 81.9761H181.031ZM215.272 84.4704V111.195H184.272V84.4704C184.272 84.1102 184.212 83.7513 184.091 83.4014H215.452C215.332 83.7513 215.271 84.1102 215.272 84.4704ZM137.031 81.9761L137.772 83.0166C138.1 83.4656 138.271 83.9642 138.272 84.4704V112.62H173.272V84.4704C173.272 83.9642 173.444 83.4656 173.772 83.0166L174.512 81.9761H137.031ZM171.272 84.4704V111.195H140.272V84.4704C140.272 84.1102 140.212 83.7513 140.091 83.4014H171.452C171.332 83.7513 171.271 84.1102 171.272 84.4704ZM93.0314 81.9761L93.7716 83.0166C94.0996 83.4656 94.2711 83.9642 94.2716 84.4704V112.62H129.272V84.4704C129.272 83.9642 129.444 83.4656 129.772 83.0166L130.512 81.9761H93.0314ZM127.272 84.4704V111.195H96.2716V84.4704C96.2722 84.1102 96.2117 83.7513 96.0915 83.4014H127.452C127.332 83.7513 127.271 84.1102 127.272 84.4704ZM49.0314 81.9761L49.7716 83.0166C50.0996 83.4656 50.2711 83.9642 50.2716 84.4704V112.62H85.2716V84.4704C85.2721 83.9642 85.4436 83.4656 85.7716 83.0166L86.5119 81.9761H49.0314ZM83.2716 84.4704V111.195H52.2716V84.4704C52.2722 84.1102 52.2117 83.7513 52.0915 83.4014H83.4518C83.3316 83.7513 83.2711 84.1102 83.2716 84.4704ZM401.031 81.9761L401.772 83.0166C402.1 83.4656 402.271 83.9642 402.272 84.4704V112.62H437.272V84.4704C437.272 83.9642 437.444 83.4656 437.772 83.0166L438.512 81.9761H401.031ZM435.272 84.4704V111.195H404.272V84.4704C404.272 84.1102 404.212 83.7513 404.091 83.4014H435.452C435.332 83.7513 435.271 84.1102 435.272 84.4704ZM357.031 81.9761L357.772 83.0166C358.1 83.4656 358.271 83.9642 358.272 84.4704V112.62H393.272V84.4704C393.272 83.9642 393.444 83.4656 393.772 83.0166L394.512 81.9761H357.031ZM391.272 84.4704V111.195H360.272V84.4704C360.272 84.1102 360.212 83.7513 360.091 83.4014H391.452C391.332 83.7513 391.271 84.1102 391.272 84.4704ZM313.031 81.9761L313.772 83.0166C314.1 83.4656 314.271 83.9642 314.272 84.4704V112.62H349.272V84.4704C349.272 83.9642 349.444 83.4656 349.772 83.0166L350.512 81.9761H313.031ZM347.272 84.4704V111.195H316.272V84.4704C316.272 84.1102 316.212 83.7513 316.091 83.4014H347.452C347.332 83.7513 347.271 84.1102 347.272 84.4704ZM269.031 81.9761L269.772 83.0166C270.1 83.4656 270.271 83.9642 270.272 84.4704V112.62H305.272V84.4704C305.272 83.9642 305.444 83.4656 305.772 83.0166L306.512 81.9761H269.031ZM303.272 84.4704V111.195H272.272V84.4704C272.272 84.1102 272.212 83.7513 272.091 83.4014H303.452C303.332 83.7513 303.271 84.1102 303.272 84.4704ZM225.031 81.9761L225.772 83.0166C226.1 83.4656 226.271 83.9642 226.272 84.4704V112.62H261.272V84.4704C261.272 83.9642 261.444 83.4656 261.772 83.0166L262.512 81.9761H225.031ZM259.272 84.4704V111.195H228.272V84.4704C228.272 84.1102 228.212 83.7513 228.091 83.4014H259.452C259.332 83.7513 259.271 84.1102 259.272 84.4704ZM181.031 81.9761L181.772 83.0166C182.1 83.4656 182.271 83.9642 182.272 84.4704V112.62H217.272V84.4704C217.272 83.9642 217.444 83.4656 217.772 83.0166L218.512 81.9761H181.031ZM215.272 84.4704V111.195H184.272V84.4704C184.272 84.1102 184.212 83.7513 184.091 83.4014H215.452C215.332 83.7513 215.271 84.1102 215.272 84.4704ZM137.031 81.9761L137.772 83.0166C138.1 83.4656 138.271 83.9642 138.272 84.4704V112.62H173.272V84.4704C173.272 83.9642 173.444 83.4656 173.772 83.0166L174.512 81.9761H137.031ZM171.272 84.4704V111.195H140.272V84.4704C140.272 84.1102 140.212 83.7513 140.091 83.4014H171.452C171.332 83.7513 171.271 84.1102 171.272 84.4704ZM93.0314 81.9761L93.7716 83.0166C94.0996 83.4656 94.2711 83.9642 94.2716 84.4704V112.62H129.272V84.4704C129.272 83.9642 129.444 83.4656 129.772 83.0166L130.512 81.9761H93.0314ZM127.272 84.4704V111.195H96.2716V84.4704C96.2722 84.1102 96.2117 83.7513 96.0915 83.4014H127.452C127.332 83.7513 127.271 84.1102 127.272 84.4704ZM49.0314 81.9761L49.7716 83.0166C50.0996 83.4656 50.2711 83.9642 50.2716 84.4704V112.62H85.2716V84.4704C85.2721 83.9642 85.4436 83.4656 85.7716 83.0166L86.5119 81.9761H49.0314ZM83.2716 84.4704V111.195H52.2716V84.4704C52.2722 84.1102 52.2117 83.7513 52.0915 83.4014H83.4518C83.3316 83.7513 83.2711 84.1102 83.2716 84.4704ZM401.031 81.9761L401.772 83.0166C402.1 83.4656 402.271 83.9642 402.272 84.4704V112.62H437.272V84.4704C437.272 83.9642 437.444 83.4656 437.772 83.0166L438.512 81.9761H401.031ZM435.272 84.4704V111.195H404.272V84.4704C404.272 84.1102 404.212 83.7513 404.091 83.4014H435.452C435.332 83.7513 435.271 84.1102 435.272 84.4704ZM357.031 81.9761L357.772 83.0166C358.1 83.4656 358.271 83.9642 358.272 84.4704V112.62H393.272V84.4704C393.272 83.9642 393.444 83.4656 393.772 83.0166L394.512 81.9761H357.031ZM391.272 84.4704V111.195H360.272V84.4704C360.272 84.1102 360.212 83.7513 360.091 83.4014H391.452C391.332 83.7513 391.271 84.1102 391.272 84.4704ZM313.031 81.9761L313.772 83.0166C314.1 83.4656 314.271 83.9642 314.272 84.4704V112.62H349.272V84.4704C349.272 83.9642 349.444 83.4656 349.772 83.0166L350.512 81.9761H313.031ZM347.272 84.4704V111.195H316.272V84.4704C316.272 84.1102 316.212 83.7513 316.091 83.4014H347.452C347.332 83.7513 347.271 84.1102 347.272 84.4704ZM269.031 81.9761L269.772 83.0166C270.1 83.4656 270.271 83.9642 270.272 84.4704V112.62H305.272V84.4704C305.272 83.9642 305.444 83.4656 305.772 83.0166L306.512 81.9761H269.031ZM303.272 84.4704V111.195H272.272V84.4704C272.272 84.1102 272.212 83.7513 272.091 83.4014H303.452C303.332 83.7513 303.271 84.1102 303.272 84.4704ZM225.031 81.9761L225.772 83.0166C226.1 83.4656 226.271 83.9642 226.272 84.4704V112.62H261.272V84.4704C261.272 83.9642 261.444 83.4656 261.772 83.0166L262.512 81.9761H225.031ZM259.272 84.4704V111.195H228.272V84.4704C228.272 84.1102 228.212 83.7513 228.091 83.4014H259.452C259.332 83.7513 259.271 84.1102 259.272 84.4704ZM181.031 81.9761L181.772 83.0166C182.1 83.4656 182.271 83.9642 182.272 84.4704V112.62H217.272V84.4704C217.272 83.9642 217.444 83.4656 217.772 83.0166L218.512 81.9761H181.031ZM215.272 84.4704V111.195H184.272V84.4704C184.272 84.1102 184.212 83.7513 184.091 83.4014H215.452C215.332 83.7513 215.271 84.1102 215.272 84.4704ZM137.031 81.9761L137.772 83.0166C138.1 83.4656 138.271 83.9642 138.272 84.4704V112.62H173.272V84.4704C173.272 83.9642 173.444 83.4656 173.772 83.0166L174.512 81.9761H137.031ZM171.272 84.4704V111.195H140.272V84.4704C140.272 84.1102 140.212 83.7513 140.091 83.4014H171.452C171.332 83.7513 171.271 84.1102 171.272 84.4704ZM93.0314 81.9761L93.7716 83.0166C94.0996 83.4656 94.2711 83.9642 94.2716 84.4704V112.62H129.272V84.4704C129.272 83.9642 129.444 83.4656 129.772 83.0166L130.512 81.9761H93.0314ZM127.272 84.4704V111.195H96.2716V84.4704C96.2722 84.1102 96.2117 83.7513 96.0915 83.4014H127.452C127.332 83.7513 127.271 84.1102 127.272 84.4704ZM49.0314 81.9761L49.7716 83.0166C50.0996 83.4656 50.2711 83.9642 50.2716 84.4704V112.62H85.2716V84.4704C85.2721 83.9642 85.4436 83.4656 85.7716 83.0166L86.5119 81.9761H49.0314ZM83.2716 84.4704V111.195H52.2716V84.4704C52.2722 84.1102 52.2117 83.7513 52.0915 83.4014H83.4518C83.3316 83.7513 83.2711 84.1102 83.2716 84.4704ZM401.031 81.9761L401.772 83.0166C402.1 83.4656 402.271 83.9642 402.272 84.4704V112.62H437.272V84.4704C437.272 83.9642 437.444 83.4656 437.772 83.0166L438.512 81.9761H401.031ZM435.272 84.4704V111.195H404.272V84.4704C404.272 84.1102 404.212 83.7513 404.091 83.4014H435.452C435.332 83.7513 435.271 84.1102 435.272 84.4704ZM357.031 81.9761L357.772 83.0166C358.1 83.4656 358.271 83.9642 358.272 84.4704V112.62H393.272V84.4704C393.272 83.9642 393.444 83.4656 393.772 83.0166L394.512 81.9761H357.031ZM391.272 84.4704V111.195H360.272V84.4704C360.272 84.1102 360.212 83.7513 360.091 83.4014H391.452C391.332 83.7513 391.271 84.1102 391.272 84.4704ZM313.031 81.9761L313.772 83.0166C314.1 83.4656 314.271 83.9642 314.272 84.4704V112.62H349.272V84.4704C349.272 83.9642 349.444 83.4656 349.772 83.0166L350.512 81.9761H313.031ZM347.272 84.4704V111.195H316.272V84.4704C316.272 84.1102 316.212 83.7513 316.091 83.4014H347.452C347.332 83.7513 347.271 84.1102 347.272 84.4704ZM269.031 81.9761L269.772 83.0166C270.1 83.4656 270.271 83.9642 270.272 84.4704V112.62H305.272V84.4704C305.272 83.9642 305.444 83.4656 305.772 83.0166L306.512 81.9761H269.031ZM303.272 84.4704V111.195H272.272V84.4704C272.272 84.1102 272.212 83.7513 272.091 83.4014H303.452C303.332 83.7513 303.271 84.1102 303.272 84.4704ZM225.031 81.9761L225.772 83.0166C226.1 83.4656 226.271 83.9642 226.272 84.4704V112.62H261.272V84.4704C261.272 83.9642 261.444 83.4656 261.772 83.0166L262.512 81.9761H225.031ZM259.272 84.4704V111.195H228.272V84.4704C228.272 84.1102 228.212 83.7513 228.091 83.4014H259.452C259.332 83.7513 259.271 84.1102 259.272 84.4704ZM181.031 81.9761L181.772 83.0166C182.1 83.4656 182.271 83.9642 182.272 84.4704V112.62H217.272V84.4704C217.272 83.9642 217.444 83.4656 217.772 83.0166L218.512 81.9761H181.031ZM215.272 84.4704V111.195H184.272V84.4704C184.272 84.1102 184.212 83.7513 184.091 83.4014H215.452C215.332 83.7513 215.271 84.1102 215.272 84.4704ZM137.031 81.9761L137.772 83.0166C138.1 83.4656 138.271 83.9642 138.272 84.4704V112.62H173.272V84.4704C173.272 83.9642 173.444 83.4656 173.772 83.0166L174.512 81.9761H137.031ZM171.272 84.4704V111.195H140.272V84.4704C140.272 84.1102 140.212 83.7513 140.091 83.4014H171.452C171.332 83.7513 171.271 84.1102 171.272 84.4704ZM93.0314 81.9761L93.7716 83.0166C94.0996 83.4656 94.2711 83.9642 94.2716 84.4704V112.62H129.272V84.4704C129.272 83.9642 129.444 83.4656 129.772 83.0166L130.512 81.9761H93.0314ZM127.272 84.4704V111.195H96.2716V84.4704C96.2722 84.1102 96.2117 83.7513 96.0915 83.4014H127.452C127.332 83.7513 127.271 84.1102 127.272 84.4704ZM49.0314 81.9761L49.7716 83.0166C50.0996 83.4656 50.2711 83.9642 50.2716 84.4704V112.62H85.2716V84.4704C85.2721 83.9642 85.4436 83.4656 85.7716 83.0166L86.5119 81.9761H49.0314ZM83.2716 84.4704V111.195H52.2716V84.4704C52.2722 84.1102 52.2117 83.7513 52.0915 83.4014H83.4518C83.3316 83.7513 83.2711 84.1102 83.2716 84.4704ZM401.031 81.9761L401.772 83.0166C402.1 83.4656 402.271 83.9642 402.272 84.4704V112.62H437.272V84.4704C437.272 83.9642 437.444 83.4656 437.772 83.0166L438.512 81.9761H401.031ZM435.272 84.4704V111.195H404.272V84.4704C404.272 84.1102 404.212 83.7513 404.091 83.4014H435.452C435.332 83.7513 435.271 84.1102 435.272 84.4704ZM357.772 83.0166C358.1 83.4656 358.271 83.9642 358.272 84.4704V112.62H393.272V84.4704C393.272 83.9642 393.444 83.4656 393.772 83.0166L394.512 81.9761H357.031L357.772 83.0166ZM391.452 83.4014C391.332 83.7513 391.271 84.1102 391.272 84.4704V111.195H360.272V84.4704C360.272 84.1102 360.212 83.7513 360.091 83.4014H391.452ZM313.772 83.0166C314.1 83.4656 314.271 83.9642 314.272 84.4704V112.62H349.272V84.4704C349.272 83.9642 349.444 83.4656 349.772 83.0166L350.512 81.9761H313.031L313.772 83.0166ZM347.452 83.4014C347.332 83.7513 347.271 84.1102 347.272 84.4704V111.195H316.272V84.4704C316.272 84.1102 316.212 83.7513 316.091 83.4014H347.452ZM269.772 83.0166C270.1 83.4656 270.271 83.9642 270.272 84.4704V112.62H305.272V84.4704C305.272 83.9642 305.444 83.4656 305.772 83.0166L306.512 81.9761H269.031L269.772 83.0166ZM303.452 83.4014C303.332 83.7513 303.271 84.1102 303.272 84.4704V111.195H272.272V84.4704C272.272 84.1102 272.212 83.7513 272.091 83.4014H303.452ZM225.772 83.0166C226.1 83.4656 226.271 83.9642 226.272 84.4704V112.62H261.272V84.4704C261.272 83.9642 261.444 83.4656 261.772 83.0166L262.512 81.9761H225.031L225.772 83.0166ZM259.452 83.4014C259.332 83.7513 259.271 84.1102 259.272 84.4704V111.195H228.272V84.4704C228.272 84.1102 228.212 83.7513 228.091 83.4014H259.452ZM181.772 83.0166C182.1 83.4656 182.271 83.9642 182.272 84.4704V112.62H217.272V84.4704C217.272 83.9642 217.444 83.4656 217.772 83.0166L218.512 81.9761H181.031L181.772 83.0166ZM215.452 83.4014C215.332 83.7513 215.271 84.1102 215.272 84.4704V111.195H184.272V84.4704C184.272 84.1102 184.212 83.7513 184.091 83.4014H215.452ZM137.772 83.0166C138.1 83.4656 138.271 83.9642 138.272 84.4704V112.62H173.272V84.4704C173.272 83.9642 173.444 83.4656 173.772 83.0166L174.512 81.9761H137.031L137.772 83.0166ZM171.452 83.4014C171.332 83.7513 171.271 84.1102 171.272 84.4704V111.195H140.272V84.4704C140.272 84.1102 140.212 83.7513 140.091 83.4014H171.452ZM93.7716 83.0166C94.0996 83.4656 94.2711 83.9642 94.2716 84.4704V112.62H129.272V84.4704C129.272 83.9642 129.444 83.4656 129.772 83.0166L130.512 81.9761H93.0314L93.7716 83.0166ZM127.452 83.4014C127.332 83.7513 127.271 84.1102 127.272 84.4704V111.195H96.2716V84.4704C96.2722 84.1102 96.2117 83.7513 96.0915 83.4014H127.452ZM49.7716 83.0166C50.0996 83.4656 50.2711 83.9642 50.2716 84.4704V112.62H85.2716V84.4704C85.2721 83.9642 85.4436 83.4656 85.7716 83.0166L86.5119 81.9761H49.0314L49.7716 83.0166ZM83.4518 83.4014C83.3316 83.7513 83.2711 84.1102 83.2716 84.4704V111.195H52.2716V84.4704C52.2722 84.1102 52.2117 83.7513 52.0915 83.4014H83.4518ZM401.772 83.0166C402.1 83.4656 402.271 83.9642 402.272 84.4704V112.62H437.272V84.4704C437.272 83.9642 437.444 83.4656 437.772 83.0166L438.512 81.9761H401.031L401.772 83.0166ZM435.452 83.4014C435.332 83.7513 435.271 84.1102 435.272 84.4704V111.195H404.272V84.4704C404.272 84.1102 404.212 83.7513 404.091 83.4014H435.452ZM357.772 83.0166C358.1 83.4656 358.271 83.9642 358.272 84.4704V112.62H393.272V84.4704C393.272 83.9642 393.444 83.4656 393.772 83.0166L394.512 81.9761H357.031L357.772 83.0166ZM391.452 83.4014C391.332 83.7513 391.271 84.1102 391.272 84.4704V111.195H360.272V84.4704C360.272 84.1102 360.212 83.7513 360.091 83.4014H391.452ZM313.772 83.0166C314.1 83.4656 314.271 83.9642 314.272 84.4704V112.62H349.272V84.4704C349.272 83.9642 349.444 83.4656 349.772 83.0166L350.512 81.9761H313.031L313.772 83.0166ZM347.452 83.4014C347.332 83.7513 347.271 84.1102 347.272 84.4704V111.195H316.272V84.4704C316.272 84.1102 316.212 83.7513 316.091 83.4014H347.452ZM269.772 83.0166C270.1 83.4656 270.271 83.9642 270.272 84.4704V112.62H305.272V84.4704C305.272 83.9642 305.444 83.4656 305.772 83.0166L306.512 81.9761H269.031L269.772 83.0166ZM303.452 83.4014C303.332 83.7513 303.271 84.1102 303.272 84.4704V111.195H272.272V84.4704C272.272 84.1102 272.212 83.7513 272.091 83.4014H303.452ZM225.772 83.0166C226.1 83.4656 226.271 83.9642 226.272 84.4704V112.62H261.272V84.4704C261.272 83.9642 261.444 83.4656 261.772 83.0166L262.512 81.9761H225.031L225.772 83.0166ZM259.452 83.4014C259.332 83.7513 259.271 84.1102 259.272 84.4704V111.195H228.272V84.4704C228.272 84.1102 228.212 83.7513 228.091 83.4014H259.452ZM181.772 83.0166C182.1 83.4656 182.271 83.9642 182.272 84.4704V112.62H217.272V84.4704C217.272 83.9642 217.444 83.4656 217.772 83.0166L218.512 81.9761H181.031L181.772 83.0166ZM215.452 83.4014C215.332 83.7513 215.271 84.1102 215.272 84.4704V111.195H184.272V84.4704C184.272 84.1102 184.212 83.7513 184.091 83.4014H215.452ZM137.772 83.0166C138.1 83.4656 138.271 83.9642 138.272 84.4704V112.62H173.272V84.4704C173.272 83.9642 173.444 83.4656 173.772 83.0166L174.512 81.9761H137.031L137.772 83.0166ZM171.452 83.4014C171.332 83.7513 171.271 84.1102 171.272 84.4704V111.195H140.272V84.4704C140.272 84.1102 140.212 83.7513 140.091 83.4014H171.452ZM93.7716 83.0166C94.0996 83.4656 94.2711 83.9642 94.2716 84.4704V112.62H129.272V84.4704C129.272 83.9642 129.444 83.4656 129.772 83.0166L130.512 81.9761H93.0314L93.7716 83.0166ZM127.452 83.4014C127.332 83.7513 127.271 84.1102 127.272 84.4704V111.195H96.2716V84.4704C96.2722 84.1102 96.2117 83.7513 96.0915 83.4014H127.452ZM49.7716 83.0166C50.0996 83.4656 50.2711 83.9642 50.2716 84.4704V112.62H85.2716V84.4704C85.2721 83.9642 85.4436 83.4656 85.7716 83.0166L86.5119 81.9761H49.0314L49.7716 83.0166ZM83.4518 83.4014C83.3316 83.7513 83.2711 84.1102 83.2716 84.4704V111.195H52.2716V84.4704C52.2722 84.1102 52.2117 83.7513 52.0915 83.4014H83.4518ZM477.272 116.896H465.352C464.694 115.256 463.307 113.814 461.398 112.785C459.49 111.757 457.164 111.199 454.772 111.195H448.272V84.4704C448.274 83.8967 448.121 83.3281 447.821 82.7957C448.955 82.3202 449.837 81.5922 450.331 80.724C450.826 79.8558 450.906 78.8956 450.559 77.9918C450.212 77.0879 449.458 76.2905 448.412 75.7226C447.366 75.1548 446.087 74.848 444.772 74.8497H42.7716C41.4567 74.848 40.1775 75.1548 39.1315 75.7226C38.0855 76.2905 37.3308 77.0879 36.9839 77.9917C36.6369 78.8956 36.7171 79.8558 37.2119 80.724C37.7067 81.5922 38.5887 82.3202 39.7218 82.7957C39.4219 83.3281 39.269 83.8967 39.2716 84.4704V111.195H32.7716C30.3791 111.199 28.0533 111.757 26.1449 112.785C24.2365 113.814 22.849 115.256 22.1916 116.896H9.27161C6.88576 116.898 4.59867 117.575 2.91162 118.777C1.22457 119.979 0.275196 121.609 0.271606 123.31V499.586C0.276779 501.286 1.22665 502.915 2.91336 504.117C4.60007 505.319 6.88625 505.996 9.27161 506H477.272C479.658 505.998 481.945 505.321 483.632 504.119C485.319 502.916 486.268 501.286 486.272 499.586V123.31C486.268 121.609 485.319 119.979 483.632 118.777C481.945 117.575 479.657 116.898 477.272 116.896ZM484.272 499.586C484.27 500.605 483.831 501.598 483.014 502.434C482.198 503.27 481.042 503.907 479.702 504.261C478.926 504.472 478.102 504.578 477.272 504.575H9.27161C8.44133 504.578 7.6174 504.472 6.84146 504.261C5.50155 503.907 4.34561 503.27 3.52878 502.434C2.71194 501.598 2.27326 500.605 2.27161 499.586V123.31C2.27367 121.987 3.01185 120.719 4.32416 119.784C5.63647 118.849 7.41572 118.323 9.27161 118.321H23.7916L23.9518 117.751C24.3723 116.304 25.4783 115.005 27.0843 114.07C28.6903 113.136 30.6984 112.624 32.7716 112.62H41.2716V84.4704C41.2719 83.8905 41.4932 83.3215 41.9117 82.8242L42.5314 82.0902L41.4015 81.7909C40.5184 81.5628 39.7766 81.1199 39.3067 80.5403C38.8368 79.9607 38.6689 79.2816 38.8326 78.6224C38.9964 77.9633 39.4812 77.3665 40.2017 76.9371C40.9223 76.5077 41.8323 76.2732 42.7716 76.275H444.772C445.711 76.2732 446.621 76.5077 447.341 76.9371C448.062 77.3665 448.547 77.9633 448.711 78.6224C448.874 79.2816 448.706 79.9607 448.236 80.5403C447.767 81.1199 447.025 81.5628 446.142 81.7909L445.012 82.0902L445.631 82.8242C446.05 83.3214 446.272 83.8905 446.272 84.4704V112.62H454.772C456.845 112.624 458.853 113.136 460.459 114.07C462.065 115.005 463.171 116.304 463.591 117.751L463.752 118.321H477.272C479.127 118.323 480.907 118.849 482.219 119.784C483.531 120.719 484.27 121.987 484.272 123.31L484.272 499.586ZM49.0314 81.9761L49.7716 83.0166C50.0996 83.4656 50.2711 83.9642 50.2716 84.4704V112.62H85.2716V84.4704C85.2721 83.9642 85.4436 83.4656 85.7716 83.0166L86.5119 81.9761H49.0314ZM83.2716 84.4704V111.195H52.2716V84.4704C52.2722 84.1102 52.2117 83.7513 52.0915 83.4014H83.4518C83.3316 83.7513 83.2711 84.1102 83.2716 84.4704ZM93.0314 81.9761L93.7716 83.0166C94.0996 83.4656 94.2711 83.9642 94.2716 84.4704V112.62H129.272V84.4704C129.272 83.9642 129.444 83.4656 129.772 83.0166L130.512 81.9761H93.0314ZM127.272 84.4704V111.195H96.2716V84.4704C96.2722 84.1102 96.2117 83.7513 96.0915 83.4014H127.452C127.332 83.7513 127.271 84.1102 127.272 84.4704ZM137.031 81.9761L137.772 83.0166C138.1 83.4656 138.271 83.9642 138.272 84.4704V112.62H173.272V84.4704C173.272 83.9642 173.444 83.4656 173.772 83.0166L174.512 81.9761H137.031ZM171.272 84.4704V111.195H140.272V84.4704C140.272 84.1102 140.212 83.7513 140.091 83.4014H171.452C171.332 83.7513 171.271 84.1102 171.272 84.4704ZM181.031 81.9761L181.772 83.0166C182.1 83.4656 182.271 83.9642 182.272 84.4704V112.62H217.272V84.4704C217.272 83.9642 217.444 83.4656 217.772 83.0166L218.512 81.9761H181.031ZM215.272 84.4704V111.195H184.272V84.4704C184.272 84.1102 184.212 83.7513 184.091 83.4014H215.452C215.332 83.7513 215.271 84.1102 215.272 84.4704ZM225.031 81.9761L225.772 83.0166C226.1 83.4656 226.271 83.9642 226.272 84.4704V112.62H261.272V84.4704C261.272 83.9642 261.444 83.4656 261.772 83.0166L262.512 81.9761H225.031ZM259.272 84.4704V111.195H228.272V84.4704C228.272 84.1102 228.212 83.7513 228.091 83.4014H259.452C259.332 83.7513 259.271 84.1102 259.272 84.4704ZM269.031 81.9761L269.772 83.0166C270.1 83.4656 270.271 83.9642 270.272 84.4704V112.62H305.272V84.4704C305.272 83.9642 305.444 83.4656 305.772 83.0166L306.512 81.9761H269.031ZM303.272 84.4704V111.195H272.272V84.4704C272.272 84.1102 272.212 83.7513 272.091 83.4014H303.452C303.332 83.7513 303.271 84.1102 303.272 84.4704ZM313.031 81.9761L313.772 83.0166C314.1 83.4656 314.271 83.9642 314.272 84.4704V112.62H349.272V84.4704C349.272 83.9642 349.444 83.4656 349.772 83.0166L350.512 81.9761H313.031ZM347.272 84.4704V111.195H316.272V84.4704C316.272 84.1102 316.212 83.7513 316.091 83.4014H347.452C347.332 83.7513 347.271 84.1102 347.272 84.4704ZM357.031 81.9761L357.772 83.0166C358.1 83.4656 358.271 83.9642 358.272 84.4704V112.62H393.272V84.4704C393.272 83.9642 393.444 83.4656 393.772 83.0166L394.512 81.9761H357.031ZM391.272 84.4704V111.195H360.272V84.4704C360.272 84.1102 360.212 83.7513 360.091 83.4014H391.452C391.332 83.7513 391.271 84.1102 391.272 84.4704ZM401.031 81.9761L401.772 83.0166C402.1 83.4656 402.271 83.9642 402.272 84.4704V112.62H437.272V84.4704C437.272 83.9642 437.444 83.4656 437.772 83.0166L438.512 81.9761H401.031ZM435.272 84.4704V111.195H404.272V84.4704C404.272 84.1102 404.212 83.7513 404.091 83.4014H435.452C435.332 83.7513 435.271 84.1102 435.272 84.4704ZM49.0314 81.9761L49.7716 83.0166C50.0996 83.4656 50.2711 83.9642 50.2716 84.4704V112.62H85.2716V84.4704C85.2721 83.9642 85.4436 83.4656 85.7716 83.0166L86.5119 81.9761H49.0314ZM83.2716 84.4704V111.195H52.2716V84.4704C52.2722 84.1102 52.2117 83.7513 52.0915 83.4014H83.4518C83.3316 83.7513 83.2711 84.1102 83.2716 84.4704ZM93.0314 81.9761L93.7716 83.0166C94.0996 83.4656 94.2711 83.9642 94.2716 84.4704V112.62H129.272V84.4704C129.272 83.9642 129.444 83.4656 129.772 83.0166L130.512 81.9761H93.0314ZM127.272 84.4704V111.195H96.2716V84.4704C96.2722 84.1102 96.2117 83.7513 96.0915 83.4014H127.452C127.332 83.7513 127.271 84.1102 127.272 84.4704ZM137.031 81.9761L137.772 83.0166C138.1 83.4656 138.271 83.9642 138.272 84.4704V112.62H173.272V84.4704C173.272 83.9642 173.444 83.4656 173.772 83.0166L174.512 81.9761H137.031ZM171.272 84.4704V111.195H140.272V84.4704C140.272 84.1102 140.212 83.7513 140.091 83.4014H171.452C171.332 83.7513 171.271 84.1102 171.272 84.4704ZM181.031 81.9761L181.772 83.0166C182.1 83.4656 182.271 83.9642 182.272 84.4704V112.62H217.272V84.4704C217.272 83.9642 217.444 83.4656 217.772 83.0166L218.512 81.9761H181.031ZM215.272 84.4704V111.195H184.272V84.4704C184.272 84.1102 184.212 83.7513 184.091 83.4014H215.452C215.332 83.7513 215.271 84.1102 215.272 84.4704ZM225.031 81.9761L225.772 83.0166C226.1 83.4656 226.271 83.9642 226.272 84.4704V112.62H261.272V84.4704C261.272 83.9642 261.444 83.4656 261.772 83.0166L262.512 81.9761H225.031ZM259.272 84.4704V111.195H228.272V84.4704C228.272 84.1102 228.212 83.7513 228.091 83.4014H259.452C259.332 83.7513 259.271 84.1102 259.272 84.4704ZM269.031 81.9761L269.772 83.0166C270.1 83.4656 270.271 83.9642 270.272 84.4704V112.62H305.272V84.4704C305.272 83.9642 305.444 83.4656 305.772 83.0166L306.512 81.9761H269.031ZM303.272 84.4704V111.195H272.272V84.4704C272.272 84.1102 272.212 83.7513 272.091 83.4014H303.452C303.332 83.7513 303.271 84.1102 303.272 84.4704ZM313.031 81.9761L313.772 83.0166C314.1 83.4656 314.271 83.9642 314.272 84.4704V112.62H349.272V84.4704C349.272 83.9642 349.444 83.4656 349.772 83.0166L350.512 81.9761H313.031ZM347.272 84.4704V111.195H316.272V84.4704C316.272 84.1102 316.212 83.7513 316.091 83.4014H347.452C347.332 83.7513 347.271 84.1102 347.272 84.4704ZM357.031 81.9761L357.772 83.0166C358.1 83.4656 358.271 83.9642 358.272 84.4704V112.62H393.272V84.4704C393.272 83.9642 393.444 83.4656 393.772 83.0166L394.512 81.9761H357.031ZM391.272 84.4704V111.195H360.272V84.4704C360.272 84.1102 360.212 83.7513 360.091 83.4014H391.452C391.332 83.7513 391.271 84.1102 391.272 84.4704ZM401.031 81.9761L401.772 83.0166C402.1 83.4656 402.271 83.9642 402.272 84.4704V112.62H437.272V84.4704C437.272 83.9642 437.444 83.4656 437.772 83.0166L438.512 81.9761H401.031ZM435.272 84.4704V111.195H404.272V84.4704C404.272 84.1102 404.212 83.7513 404.091 83.4014H435.452C435.332 83.7513 435.271 84.1102 435.272 84.4704ZM49.0314 81.9761L49.7716 83.0166C50.0996 83.4656 50.2711 83.9642 50.2716 84.4704V112.62H85.2716V84.4704C85.2721 83.9642 85.4436 83.4656 85.7716 83.0166L86.5119 81.9761H49.0314ZM83.2716 84.4704V111.195H52.2716V84.4704C52.2722 84.1102 52.2117 83.7513 52.0915 83.4014H83.4518C83.3316 83.7513 83.2711 84.1102 83.2716 84.4704ZM93.0314 81.9761L93.7716 83.0166C94.0996 83.4656 94.2711 83.9642 94.2716 84.4704V112.62H129.272V84.4704C129.272 83.9642 129.444 83.4656 129.772 83.0166L130.512 81.9761H93.0314ZM127.272 84.4704V111.195H96.2716V84.4704C96.2722 84.1102 96.2117 83.7513 96.0915 83.4014H127.452C127.332 83.7513 127.271 84.1102 127.272 84.4704ZM137.031 81.9761L137.772 83.0166C138.1 83.4656 138.271 83.9642 138.272 84.4704V112.62H173.272V84.4704C173.272 83.9642 173.444 83.4656 173.772 83.0166L174.512 81.9761H137.031ZM171.272 84.4704V111.195H140.272V84.4704C140.272 84.1102 140.212 83.7513 140.091 83.4014H171.452C171.332 83.7513 171.271 84.1102 171.272 84.4704ZM181.031 81.9761L181.772 83.0166C182.1 83.4656 182.271 83.9642 182.272 84.4704V112.62H217.272V84.4704C217.272 83.9642 217.444 83.4656 217.772 83.0166L218.512 81.9761H181.031ZM215.272 84.4704V111.195H184.272V84.4704C184.272 84.1102 184.212 83.7513 184.091 83.4014H215.452C215.332 83.7513 215.271 84.1102 215.272 84.4704ZM225.031 81.9761L225.772 83.0166C226.1 83.4656 226.271 83.9642 226.272 84.4704V112.62H261.272V84.4704C261.272 83.9642 261.444 83.4656 261.772 83.0166L262.512 81.9761H225.031ZM259.272 84.4704V111.195H228.272V84.4704C228.272 84.1102 228.212 83.7513 228.091 83.4014H259.452C259.332 83.7513 259.271 84.1102 259.272 84.4704ZM269.031 81.9761L269.772 83.0166C270.1 83.4656 270.271 83.9642 270.272 84.4704V112.62H305.272V84.4704C305.272 83.9642 305.444 83.4656 305.772 83.0166L306.512 81.9761H269.031ZM303.272 84.4704V111.195H272.272V84.4704C272.272 84.1102 272.212 83.7513 272.091 83.4014H303.452C303.332 83.7513 303.271 84.1102 303.272 84.4704ZM313.031 81.9761L313.772 83.0166C314.1 83.4656 314.271 83.9642 314.272 84.4704V112.62H349.272V84.4704C349.272 83.9642 349.444 83.4656 349.772 83.0166L350.512 81.9761H313.031ZM347.272 84.4704V111.195H316.272V84.4704C316.272 84.1102 316.212 83.7513 316.091 83.4014H347.452C347.332 83.7513 347.271 84.1102 347.272 84.4704ZM357.031 81.9761L357.772 83.0166C358.1 83.4656 358.271 83.9642 358.272 84.4704V112.62H393.272V84.4704C393.272 83.9642 393.444 83.4656 393.772 83.0166L394.512 81.9761H357.031ZM391.272 84.4704V111.195H360.272V84.4704C360.272 84.1102 360.212 83.7513 360.091 83.4014H391.452C391.332 83.7513 391.271 84.1102 391.272 84.4704ZM401.031 81.9761L401.772 83.0166C402.1 83.4656 402.271 83.9642 402.272 84.4704V112.62H437.272V84.4704C437.272 83.9642 437.444 83.4656 437.772 83.0166L438.512 81.9761H401.031ZM435.272 84.4704V111.195H404.272V84.4704C404.272 84.1102 404.212 83.7513 404.091 83.4014H435.452C435.332 83.7513 435.271 84.1102 435.272 84.4704ZM49.0314 81.9761L49.7716 83.0166C50.0996 83.4656 50.2711 83.9642 50.2716 84.4704V112.62H85.2716V84.4704C85.2721 83.9642 85.4436 83.4656 85.7716 83.0166L86.5119 81.9761H49.0314ZM83.2716 84.4704V111.195H52.2716V84.4704C52.2722 84.1102 52.2117 83.7513 52.0915 83.4014H83.4518C83.3316 83.7513 83.2711 84.1102 83.2716 84.4704ZM93.0314 81.9761L93.7716 83.0166C94.0996 83.4656 94.2711 83.9642 94.2716 84.4704V112.62H129.272V84.4704C129.272 83.9642 129.444 83.4656 129.772 83.0166L130.512 81.9761H93.0314ZM127.272 84.4704V111.195H96.2716V84.4704C96.2722 84.1102 96.2117 83.7513 96.0915 83.4014H127.452C127.332 83.7513 127.271 84.1102 127.272 84.4704ZM137.031 81.9761L137.772 83.0166C138.1 83.4656 138.271 83.9642 138.272 84.4704V112.62H173.272V84.4704C173.272 83.9642 173.444 83.4656 173.772 83.0166L174.512 81.9761H137.031ZM171.272 84.4704V111.195H140.272V84.4704C140.272 84.1102 140.212 83.7513 140.091 83.4014H171.452C171.332 83.7513 171.271 84.1102 171.272 84.4704ZM181.031 81.9761L181.772 83.0166C182.1 83.4656 182.271 83.9642 182.272 84.4704V112.62H217.272V84.4704C217.272 83.9642 217.444 83.4656 217.772 83.0166L218.512 81.9761H181.031ZM215.272 84.4704V111.195H184.272V84.4704C184.272 84.1102 184.212 83.7513 184.091 83.4014H215.452C215.332 83.7513 215.271 84.1102 215.272 84.4704ZM225.031 81.9761L225.772 83.0166C226.1 83.4656 226.271 83.9642 226.272 84.4704V112.62H261.272V84.4704C261.272 83.9642 261.444 83.4656 261.772 83.0166L262.512 81.9761H225.031ZM259.272 84.4704V111.195H228.272V84.4704C228.272 84.1102 228.212 83.7513 228.091 83.4014H259.452C259.332 83.7513 259.271 84.1102 259.272 84.4704ZM269.031 81.9761L269.772 83.0166C270.1 83.4656 270.271 83.9642 270.272 84.4704V112.62H305.272V84.4704C305.272 83.9642 305.444 83.4656 305.772 83.0166L306.512 81.9761H269.031ZM303.272 84.4704V111.195H272.272V84.4704C272.272 84.1102 272.212 83.7513 272.091 83.4014H303.452C303.332 83.7513 303.271 84.1102 303.272 84.4704ZM313.031 81.9761L313.772 83.0166C314.1 83.4656 314.271 83.9642 314.272 84.4704V112.62H349.272V84.4704C349.272 83.9642 349.444 83.4656 349.772 83.0166L350.512 81.9761H313.031ZM347.272 84.4704V111.195H316.272V84.4704C316.272 84.1102 316.212 83.7513 316.091 83.4014H347.452C347.332 83.7513 347.271 84.1102 347.272 84.4704ZM357.031 81.9761L357.772 83.0166C358.1 83.4656 358.271 83.9642 358.272 84.4704V112.62H393.272V84.4704C393.272 83.9642 393.444 83.4656 393.772 83.0166L394.512 81.9761H357.031ZM391.272 84.4704V111.195H360.272V84.4704C360.272 84.1102 360.212 83.7513 360.091 83.4014H391.452C391.332 83.7513 391.271 84.1102 391.272 84.4704ZM401.031 81.9761L401.772 83.0166C402.1 83.4656 402.271 83.9642 402.272 84.4704V112.62H437.272V84.4704C437.272 83.9642 437.444 83.4656 437.772 83.0166L438.512 81.9761H401.031ZM435.272 84.4704V111.195H404.272V84.4704C404.272 84.1102 404.212 83.7513 404.091 83.4014H435.452C435.332 83.7513 435.271 84.1102 435.272 84.4704Z" fill="#3F3D56"/>
<path d="M167.924 233.419H94.1805C92.6274 233.417 91.1384 232.799 90.0402 231.701C88.9419 230.603 88.3242 229.114 88.3224 227.561V188.277C88.3242 186.724 88.9419 185.235 90.0402 184.137C91.1384 183.038 92.6274 182.421 94.1805 182.419H167.924C169.477 182.421 170.966 183.038 172.064 184.137C173.162 185.235 173.78 186.724 173.782 188.277V227.561C173.78 229.114 173.162 230.603 172.064 231.701C170.966 232.799 169.477 233.417 167.924 233.419Z" fill="black"/>
<path d="M280.143 233.419H206.4C204.847 233.417 203.358 232.799 202.26 231.701C201.161 230.603 200.544 229.114 200.542 227.561V188.277C200.544 186.724 201.161 185.235 202.26 184.137C203.358 183.038 204.847 182.421 206.4 182.419H280.143C281.696 182.421 283.185 183.038 284.284 184.137C285.382 185.235 286 186.724 286.001 188.277V227.561C286 229.114 285.382 230.603 284.284 231.701C283.185 232.799 281.696 233.417 280.143 233.419Z" fill="black"/>
<path d="M392.363 233.419H318.62C317.066 233.417 315.577 232.799 314.479 231.701C313.381 230.603 312.763 229.114 312.761 227.561V188.277C312.763 186.724 313.381 185.235 314.479 184.137C315.577 183.038 317.066 182.421 318.62 182.419H392.363C393.916 182.421 395.405 183.038 396.503 184.137C397.601 185.235 398.219 186.724 398.221 188.277V227.561C398.219 229.114 397.601 230.603 396.503 231.701C395.405 232.799 393.916 233.417 392.363 233.419Z" fill="black"/>
<path d="M167.924 348H94.1805C92.6274 347.998 91.1384 347.381 90.0402 346.282C88.9419 345.184 88.3242 343.695 88.3224 342.142V302.858C88.3242 301.305 88.9419 299.816 90.0402 298.718C91.1384 297.619 92.6274 297.002 94.1805 297H167.924C169.477 297.002 170.966 297.619 172.064 298.718C173.162 299.816 173.78 301.305 173.782 302.858V342.142C173.78 343.695 173.162 345.184 172.064 346.282C170.966 347.381 169.477 347.998 167.924 348Z" fill="black"/>
<path d="M280.143 348H206.4C204.847 347.998 203.358 347.381 202.26 346.282C201.161 345.184 200.544 343.695 200.542 342.142V302.858C200.544 301.305 201.161 299.816 202.26 298.718C203.358 297.619 204.847 297.002 206.4 297H280.143C281.696 297.002 283.185 297.619 284.284 298.718C285.382 299.816 286 301.305 286.001 302.858V342.142C286 343.695 285.382 345.184 284.284 346.282C283.185 347.381 281.696 347.998 280.143 348Z" fill="black"/>
<path d="M392.363 348H318.62C317.066 347.998 315.577 347.381 314.479 346.282C313.381 345.184 312.763 343.695 312.761 342.142V302.858C312.763 301.305 313.381 299.816 314.479 298.718C315.577 297.619 317.066 297.002 318.62 297H392.363C393.916 297.002 395.405 297.619 396.503 298.718C397.601 299.816 398.219 301.305 398.221 302.858V342.142C398.219 343.695 397.601 345.184 396.503 346.282C395.405 347.381 393.916 347.998 392.363 348Z" fill="black"/>
<path d="M155.985 238.459H70.5579C68.4935 238.457 66.5144 237.636 65.0547 236.176C63.595 234.716 62.7739 232.737 62.7716 230.673V185.165C62.7739 183.101 63.595 181.122 65.0547 179.662C66.5144 178.202 68.4935 177.381 70.5579 177.378H155.985C158.05 177.381 160.029 178.202 161.488 179.662C162.948 181.121 163.769 183.101 163.772 185.165V230.673C163.769 232.737 162.948 234.716 161.488 236.176C160.029 237.636 158.05 238.457 155.985 238.459ZM70.5579 179.378C69.0238 179.38 67.553 179.99 66.4682 181.075C65.3834 182.16 64.7733 183.631 64.7716 185.165V230.673C64.7733 232.207 65.3834 233.678 66.4682 234.763C67.553 235.847 69.0238 236.458 70.5579 236.459H155.985C157.519 236.458 158.99 235.848 160.075 234.763C161.16 233.678 161.77 232.207 161.772 230.673V185.165C161.77 183.631 161.16 182.16 160.075 181.075C158.99 179.99 157.519 179.38 155.985 179.378H70.5579Z" fill="#3F3D56"/>
<path d="M285.985 238.459H200.558C198.494 238.457 196.514 237.636 195.055 236.176C193.595 234.716 192.774 232.737 192.772 230.673V185.165C192.774 183.101 193.595 181.121 195.055 179.662C196.514 178.202 198.494 177.381 200.558 177.378H285.985C288.05 177.381 290.029 178.202 291.489 179.662C292.948 181.121 293.769 183.101 293.772 185.165V230.673C293.769 232.737 292.948 234.716 291.489 236.176C290.029 237.636 288.05 238.457 285.985 238.459ZM200.558 179.378C199.024 179.38 197.553 179.99 196.468 181.075C195.383 182.16 194.773 183.631 194.772 185.165V230.673C194.773 232.207 195.383 233.678 196.468 234.763C197.553 235.848 199.024 236.458 200.558 236.459H285.985C287.519 236.458 288.99 235.848 290.075 234.763C291.16 233.678 291.77 232.207 291.772 230.673V185.165C291.77 183.631 291.16 182.16 290.075 181.075C288.99 179.99 287.519 179.38 285.985 179.378H200.558Z" fill="#3F3D56"/>
<path d="M415.985 238.459H330.558C328.494 238.457 326.514 237.636 325.055 236.176C323.595 234.716 322.774 232.737 322.772 230.673V185.165C322.774 183.101 323.595 181.121 325.055 179.662C326.514 178.202 328.494 177.381 330.558 177.378H415.985C418.05 177.381 420.029 178.202 421.489 179.662C422.948 181.121 423.769 183.101 423.772 185.165V230.673C423.769 232.737 422.948 234.716 421.489 236.176C420.029 237.636 418.05 238.457 415.985 238.459ZM330.558 179.378C329.024 179.38 327.553 179.99 326.468 181.075C325.383 182.16 324.773 183.631 324.772 185.165V230.673C324.773 232.207 325.383 233.678 326.468 234.763C327.553 235.848 329.024 236.458 330.558 236.459H415.985C417.519 236.458 418.99 235.848 420.075 234.763C421.16 233.678 421.77 232.207 421.772 230.673V185.165C421.77 183.631 421.16 182.16 420.075 181.075C418.99 179.99 417.519 179.38 415.985 179.378H330.558Z" fill="#3F3D56"/>
<path d="M155.985 353.041H70.5579C68.4935 353.038 66.5144 352.217 65.0547 350.757C63.595 349.297 62.7739 347.318 62.7716 345.254V299.746C62.7739 297.682 63.595 295.703 65.0547 294.243C66.5144 292.783 68.4935 291.962 70.5579 291.959H155.985C158.05 291.962 160.029 292.783 161.488 294.243C162.948 295.702 163.769 297.682 163.772 299.746V345.254C163.769 347.318 162.948 349.297 161.488 350.757C160.029 352.217 158.05 353.038 155.985 353.041ZM70.5579 293.959C69.0238 293.961 67.553 294.571 66.4682 295.656C65.3834 296.741 64.7733 298.212 64.7716 299.746V345.254C64.7733 346.788 65.3834 348.259 66.4682 349.344C67.553 350.429 69.0238 351.039 70.5579 351.041H155.985C157.519 351.039 158.99 350.429 160.075 349.344C161.16 348.259 161.77 346.788 161.772 345.254V299.746C161.77 298.212 161.16 296.741 160.075 295.656C158.99 294.571 157.519 293.961 155.985 293.959H70.5579Z" fill="#3F3D56"/>
<path d="M285.985 353.041H200.558C198.494 353.038 196.514 352.217 195.055 350.757C193.595 349.297 192.774 347.318 192.772 345.254V299.746C192.774 297.682 193.595 295.702 195.055 294.243C196.514 292.783 198.494 291.962 200.558 291.959H285.985C288.05 291.962 290.029 292.783 291.489 294.243C292.948 295.702 293.769 297.682 293.772 299.746V345.254C293.769 347.318 292.948 349.297 291.489 350.757C290.029 352.217 288.05 353.038 285.985 353.041ZM200.558 293.959C199.024 293.961 197.553 294.571 196.468 295.656C195.383 296.741 194.773 298.212 194.772 299.746V345.254C194.773 346.788 195.383 348.259 196.468 349.344C197.553 350.429 199.024 351.039 200.558 351.041H285.985C287.519 351.039 288.99 350.429 290.075 349.344C291.16 348.259 291.77 346.788 291.772 345.254V299.746C291.77 298.212 291.16 296.741 290.075 295.656C288.99 294.571 287.519 293.961 285.985 293.959H200.558Z" fill="#3F3D56"/>
<path d="M415.985 353.041H330.558C328.494 353.038 326.514 352.217 325.055 350.757C323.595 349.297 322.774 347.318 322.772 345.254V299.746C322.774 297.682 323.595 295.702 325.055 294.243C326.514 292.783 328.494 291.962 330.558 291.959H415.985C418.05 291.962 420.029 292.783 421.489 294.243C422.948 295.702 423.769 297.682 423.772 299.746V345.254C423.769 347.318 422.948 349.297 421.489 350.757C420.029 352.217 418.05 353.038 415.985 353.041ZM330.558 293.959C329.024 293.961 327.553 294.571 326.468 295.656C325.383 296.741 324.773 298.212 324.772 299.746V345.254C324.773 346.788 325.383 348.259 326.468 349.344C327.553 350.429 329.024 351.039 330.558 351.041H415.985C417.519 351.039 418.99 350.429 420.075 349.344C421.16 348.259 421.77 346.788 421.772 345.254V299.746C421.77 298.212 421.16 296.741 420.075 295.656C418.99 294.571 417.519 293.961 415.985 293.959H330.558Z" fill="#3F3D56"/>
<path d="M293.772 410.71C293.799 408.428 292.919 406.229 291.325 404.595C289.731 402.962 287.554 402.028 285.272 402H243.272V505.5H293.772V410.71Z" fill="#3F3D56"/>
<path d="M244.272 504.5H191.772V411C191.775 408.481 192.776 406.067 194.557 404.286C196.338 402.505 198.753 401.503 201.272 401.5H244.272V504.5ZM193.772 502.5H242.272V403.5H201.272C199.283 403.502 197.377 404.293 195.971 405.699C194.565 407.105 193.774 409.012 193.772 411V502.5Z" fill="#3F3D56"/>
<path d="M198.272 460C199.928 460 201.272 458.657 201.272 457C201.272 455.343 199.928 454 198.272 454C196.615 454 195.272 455.343 195.272 457C195.272 458.657 196.615 460 198.272 460Z" fill="#3F3D56"/>
</svg>
