<svg width="350" height="350" viewBox="0 0 350 350" fill="none" xmlns="http://www.w3.org/2000/svg">
<circle cx="175" cy="175" r="175" fill="black"/>
<path d="M175.747 335.233C264.506 335.233 336.495 263.566 336.495 175.117C336.495 86.6676 264.506 15 175.747 15C86.9881 15 15 86.6676 15 175.117C15 263.566 86.9881 335.233 175.747 335.233Z" fill="black"/>
<path d="M175.747 335.233C264.506 335.233 336.495 263.566 336.495 175.117C336.495 86.6676 264.506 15 175.747 15C86.9881 15 15 86.6676 15 175.117C15 263.566 86.9881 335.233 175.747 335.233Z" stroke="white" stroke-width="10"/>
<path d="M175.747 335.233C264.506 335.233 336.495 263.566 336.495 175.117C336.495 86.6676 264.506 15 175.747 15C86.9881 15 15 86.6676 15 175.117C15 263.566 86.9881 335.233 175.747 335.233Z" stroke="white" stroke-width="10"/>
<path d="M235.774 248.887V125.113C235.774 111.858 225.029 101.113 211.774 101.113H138.226C124.971 101.113 114.226 111.858 114.226 125.113V248.887" stroke="white" stroke-width="15"/>
<circle cx="175" cy="175" r="20" fill="white"/>
</svg>
