<svg width="105" height="125" viewBox="0 0 105 125" fill="none" xmlns="http://www.w3.org/2000/svg">
<path d="M98.8229 27.4448C100.979 70.4318 83.2988 106.312 54.2227 118.44C53.3296 118.813 52.3268 118.824 51.4271 118.467C25.2347 108.1 5.14545 76.7253 6.02799 27.5902C6.05968 25.8264 7.27824 24.2998 8.97992 23.8347C24.6398 19.5544 34.5856 15.5433 50.919 7.00367C52.1109 6.38046 53.541 6.3929 54.7231 7.03461C69.7176 15.1744 79.4381 19.2124 95.9121 23.8468C97.5483 24.3071 98.7377 25.7472 98.8229 27.4448Z" fill="#363A9F"/>
<rect x="5.02335" y="52.7117" width="14.475" height="98.4434" transform="rotate(-98 5.02335 52.7117)" fill="url(#paint0_radial_2_18)"/>
<path d="M39.0543 7.78652L53.3884 5.77199L68.8942 116.101L54.5601 118.116L39.0543 7.78652Z" fill="url(#paint1_radial_2_18)"/>
<path d="M102.677 23.9234C105.155 71.1305 85.5301 110.075 53.8144 123.064C53.2812 123.283 52.6866 123.288 52.153 123.081C23.6524 112.012 1.35417 78.0477 2.41766 24.0219C2.439 22.9379 3.1961 21.9734 4.27393 21.6829C22.0773 16.883 33.2897 12.4075 51.798 2.81676C52.5404 2.43205 53.4282 2.43925 54.1668 2.83671C71.1711 11.9874 82.1345 16.4959 100.85 21.6922C101.89 21.981 102.623 22.8887 102.677 23.9234Z" stroke="url(#paint2_radial_2_18)" stroke-width="3"/>
<path d="M100.306 25.5165C102.632 70.5372 83.9002 107.652 53.6621 120.065C53.1304 120.283 52.5373 120.289 52.0052 120.082C24.8301 109.5 3.55475 77.1239 4.53232 25.6147C4.55287 24.532 5.30886 23.5683 6.38771 23.2772C23.3218 18.7079 34.0343 14.4329 51.6474 5.31615C52.3898 4.93192 53.2788 4.93911 54.0173 5.33608C70.2022 14.0355 80.677 18.3408 98.4796 23.2865C99.5208 23.5757 100.253 24.4832 100.306 25.5165Z" stroke="white" stroke-width="3"/>
<path d="M45.3838 23.7266C44.0492 22.8151 42.5436 22.3594 40.8672 22.3594C39.207 22.3594 37.848 22.7988 36.79 23.6777C35.7321 24.5404 35.2031 25.7611 35.2031 27.3398C35.2031 28.9023 35.9925 30.2858 37.5713 31.4902C38.5153 32.2227 40.444 33.2155 43.3574 34.4688C46.2708 35.722 48.2972 36.8776 49.4365 37.9355C51.6175 39.9538 52.708 42.0534 52.708 44.2344V45.1133C52.708 47.8151 51.6338 50.0124 49.4854 51.7051C48.4925 52.4863 47.2555 53.113 45.7744 53.585C44.2933 54.0407 42.8122 54.2686 41.3311 54.2686H40.4277C37.0749 54.2686 34.137 53.764 31.6143 52.7549C30.4749 52.2992 29.9053 51.054 29.9053 49.0195V48.165C29.9053 45.7562 30.3203 44.5518 31.1504 44.5518C31.7201 44.5518 32.4932 45.3249 33.4697 46.8711C34.4463 48.4173 35.5693 49.5811 36.8389 50.3623C38.1247 51.1436 39.6709 51.5342 41.4775 51.5342C43.2842 51.5342 44.7409 51.0622 45.8477 50.1182C46.9544 49.1579 47.5078 47.9779 47.5078 46.5781C47.5078 44.6576 46.6126 43.0381 44.8223 41.7197C44.0573 41.1663 42.1367 40.1816 39.0605 38.7656C35.9844 37.3333 33.8522 35.9987 32.6641 34.7617C31.0365 33.069 30.2227 31.002 30.2227 28.5605C30.2227 26.1191 31.0934 24.0928 32.835 22.4814C33.7952 21.5863 34.9915 20.8945 36.4238 20.4062C37.8561 19.9017 39.321 19.6494 40.8184 19.6494H41.7217C42.3402 19.6494 43.2191 19.7552 44.3584 19.9668L45.2129 20.1377C46.222 20.333 46.7673 20.4388 46.8486 20.4551L47.6055 20.5039L48.3379 20.5283C49.0215 20.5771 49.5016 20.6585 49.7783 20.7725C50.7386 21.1631 51.2188 22.5221 51.2188 24.8496C51.2188 27.1771 50.763 28.3408 49.8516 28.3408C49.3958 28.3408 48.7122 27.6898 47.8008 26.3877C46.8893 25.0856 46.0837 24.1986 45.3838 23.7266Z" fill="white"/>
<path d="M76.7549 41.918C78.0732 41.918 79.0335 42.2435 79.6357 42.8945C80.2542 43.5293 80.5635 44.9046 80.5635 47.0205C80.5635 48.2087 80.2949 48.8027 79.7578 48.8027C79.6927 48.8027 79.1719 48.4202 78.1953 47.6553C77.2188 46.874 76.3887 46.3451 75.7051 46.0684C74.0124 45.401 71.9128 45.0674 69.4062 45.0674C67.8275 45.0674 66.7207 45.5801 66.0859 46.6055C65.4512 47.6309 65.1338 49.6654 65.1338 52.709C65.1338 54.418 65.443 55.5817 66.0615 56.2002C66.68 56.8187 67.5996 57.1279 68.8203 57.1279C70.0573 57.1279 71.2373 56.7861 72.3604 56.1025C73.4997 55.4189 74.1019 55.0771 74.167 55.0771C74.7692 55.0771 75.1924 55.3538 75.4365 55.9072C75.6969 56.4606 75.8271 57.3558 75.8271 58.5928C75.8271 61.3271 75.1436 62.6943 73.7764 62.6943C73.5485 62.6943 72.9544 62.4502 71.9941 61.9619C71.0501 61.4574 70.3584 61.2051 69.9189 61.2051C68.3564 61.2051 67.1764 61.5143 66.3789 62.1328C65.5977 62.735 65.207 63.9639 65.207 65.8193C65.207 67.6748 65.3698 69.2861 65.6953 70.6533C66.0208 72.0205 66.2812 72.8831 66.4766 73.2412C66.6719 73.5993 66.8997 73.9736 67.1602 74.3643C67.4368 74.7549 67.5752 75.0316 67.5752 75.1943C67.5752 75.7965 66.4766 76.0977 64.2793 76.0977H63.4248L62.5703 76.0732C58.127 76.0732 55.9053 75.6257 55.9053 74.7305C55.9053 74.2747 56.3366 73.7702 57.1992 73.2168C58.0781 72.6634 58.6152 72.0775 58.8105 71.459C59.0059 70.8405 59.1035 69.3431 59.1035 66.9668V62.084L59.1768 59.4717L59.2012 56.835V54.1738C59.2012 50.3978 59.0547 48.0052 58.7617 46.9961C58.4688 45.9707 58.07 45.279 57.5654 44.9209C56.3285 44.0257 55.71 43.4967 55.71 43.334C55.71 42.7806 56.0436 42.4225 56.7109 42.2598C57.1341 42.1621 58.5094 42.1133 60.8369 42.1133L66.9648 41.9912L69.626 41.918H76.7549Z" fill="white"/>
<path d="M49.9229 81.5225V81.376C49.9229 79.846 48.6126 76.0212 45.9922 69.9014C45.5365 68.8434 45.3005 68.3145 45.2842 68.3145L44.5762 69.9502C41.8743 76.249 40.5234 80.0739 40.5234 81.4248C40.5234 81.6527 40.6618 81.7747 40.9385 81.791C41.2314 81.8073 41.4512 81.8154 41.5977 81.8154L43.502 81.8643H45.2354L45.4062 81.8398C48.4173 81.8398 49.9229 81.734 49.9229 81.5225ZM29.5615 94.5352C29.5615 94.1283 30.0254 93.6562 30.9531 93.1191C31.8809 92.582 32.5645 91.8984 33.0039 91.0684C33.4434 90.2383 34.0618 88.7409 34.8594 86.5762C35.6569 84.3952 36.7393 81.6527 38.1064 78.3486C39.4899 75.0446 40.5804 72.0824 41.3779 69.4619C42.1917 66.8252 42.7451 65.1569 43.0381 64.457C43.7054 62.862 44.6494 62.0645 45.8701 62.0645H46.5537C46.863 62.0645 47.2454 62.2354 47.7012 62.5771C48.6289 63.277 49.5973 64.7744 50.6064 67.0693C50.9482 67.8506 51.4609 69.1934 52.1445 71.0977C52.8281 72.9857 54.1953 76.6885 56.2461 82.2061C58.2969 87.7236 59.4443 90.7266 59.6885 91.2148C60.0954 92.0612 60.7871 92.7448 61.7637 93.2656C62.7402 93.7702 63.2285 94.1771 63.2285 94.4863C63.2285 95.1699 62.8216 95.5931 62.0078 95.7559C61.4544 95.8698 60.0547 95.9268 57.8086 95.9268L56.3926 95.9512C53.3815 95.9512 51.876 95.5443 51.876 94.7305C51.876 94.584 52.0632 94.234 52.4375 93.6807C52.8281 93.1273 53.0234 92.4274 53.0234 91.5811C53.0234 90.7347 52.7142 89.5221 52.0957 87.9434C51.4935 86.3646 50.9808 85.388 50.5576 85.0137C50.1507 84.6393 48.3848 84.4521 45.2598 84.4521C42.1348 84.4521 40.3118 84.623 39.791 84.9648C39.2702 85.3066 38.7087 86.2262 38.1064 87.7236C37.5042 89.221 37.2031 90.4417 37.2031 91.3857C37.2031 92.3135 37.488 93.1354 38.0576 93.8516C38.6436 94.5677 38.9365 94.9421 38.9365 94.9746C38.9365 95.5605 37.9355 95.8535 35.9336 95.8535C33.9479 95.8535 32.3854 95.7803 31.2461 95.6338C30.123 95.471 29.5615 95.1048 29.5615 94.5352Z" fill="white"/>
<defs>
<radialGradient id="paint0_radial_2_18" cx="0" cy="0" r="1" gradientUnits="userSpaceOnUse" gradientTransform="translate(12.2608 101.933) rotate(90) scale(49.2217 7.23749)">
<stop stop-color="#D1E4FF"/>
<stop offset="1" stop-color="#D1E4FF" stop-opacity="0.5"/>
</radialGradient>
<radialGradient id="paint1_radial_2_18" cx="0" cy="0" r="1" gradientUnits="userSpaceOnUse" gradientTransform="translate(53.9743 61.9438) rotate(82) scale(55.7067 7.23749)">
<stop stop-color="#CEDAEC"/>
<stop offset="1" stop-color="#D1E4FF" stop-opacity="0.5"/>
</radialGradient>
<radialGradient id="paint2_radial_2_18" cx="0" cy="0" r="1" gradientUnits="userSpaceOnUse" gradientTransform="translate(-12 23) rotate(19.9831) scale(140.456 144.334)">
<stop stop-color="#E2DCA9"/>
<stop offset="1" stop-color="#E3CD00"/>
</radialGradient>
</defs>
</svg>
