<svg width="193" height="297" viewBox="0 0 193 297" fill="none" xmlns="http://www.w3.org/2000/svg">
<path d="M115.923 294.895C192.318 281.423 216.254 181.702 167.848 136.167C167.592 135.926 167.193 135.798 166.909 136.004C161.906 139.632 200.84 177.554 146.755 214.459C146.325 214.752 146.154 215.359 146.362 215.837C173.074 277.159 97.9963 281.372 115.077 294.677C115.305 294.854 115.638 294.945 115.923 294.895Z" fill="url(#paint0_linear_4_11)"/>
<path d="M62.7833 277.258C63.1503 279.91 65.3829 285.73 70.4694 291.85C71.1434 292.661 70.4061 293.912 69.3842 293.651C-0.773699 275.752 -28.578 172.669 38.7724 132.44C39.3582 132.09 40.1388 132.389 40.3251 133.046C48.6101 162.242 15.7102 177.93 29.7762 212.859C30.1999 213.911 31.7803 213.605 31.8892 212.476C34.5244 185.159 59.5979 165.217 58.5401 142.3C57.3971 117.538 47.2307 101.979 67.9853 78.437C68.6677 77.6631 69.9259 78.2496 69.8356 79.2774C67.3718 107.317 80.196 111.197 81.6534 139.256C83.1552 168.171 7.5554 213.223 61.9052 274.575C62.4048 275.139 62.6799 276.512 62.7833 277.258Z" fill="url(#paint1_linear_4_11)"/>
<path d="M89.7742 91.5634C127.573 185.489 31.4139 178.382 61.2492 263.486C53.3305 189.161 166.605 170.019 89.7742 91.5634Z" fill="url(#paint2_linear_4_11)"/>
<path d="M119.029 4.18282C91.5613 70.286 152.316 70.8029 152.316 143.744C152.316 212.222 66.0493 225.588 94.8039 294.305C94.9161 294.574 94.9186 294.896 94.778 295.15C94.2503 296.105 93.5337 296.816 91.3562 296.869C91.0473 296.876 90.7448 296.708 90.5608 296.46C36.8857 224.064 134.326 200.748 131.86 143.744C129.258 83.6197 55.7809 55.2017 117.433 3.00504C118.234 2.32664 119.432 3.21329 119.029 4.18282Z" fill="url(#paint3_linear_4_11)"/>
<defs>
<linearGradient id="paint0_linear_4_11" x1="152.731" y1="135.781" x2="152.731" y2="294.973" gradientUnits="userSpaceOnUse">
<stop stop-color="#FFFB00"/>
<stop offset="1" stop-color="dodgerblue"/>
</linearGradient>
<linearGradient id="paint1_linear_4_11" x1="40.9607" y1="76.045" x2="40.9607" y2="294.445" gradientUnits="userSpaceOnUse">
<stop stop-color="#FFD900"/>
<stop offset="1" stop-color="dodgerblue"/>
</linearGradient>
<linearGradient id="paint2_linear_4_11" x1="86.0198" y1="91.5634" x2="86.0198" y2="263.486" gradientUnits="userSpaceOnUse">
<stop stop-color="#FFD900"/>
<stop offset="1" stop-color="dodgerblue"/>
</linearGradient>
<linearGradient id="paint3_linear_4_11" x1="113.358" y1="0.315445" x2="113.358" y2="296.872" gradientUnits="userSpaceOnUse">
<stop stop-color="#FFD900"/>
<stop offset="1" stop-color="dodgerblue"/>
</linearGradient>
</defs>
</svg>
