<svg width="160" height="161" viewBox="0 0 160 161" fill="none" xmlns="http://www.w3.org/2000/svg">
<rect width="160" height="161" fill="white"/>
<path d="M124.823 27.4448C126.979 70.4318 109.299 106.312 80.2227 118.44C79.3296 118.813 78.3268 118.824 77.4271 118.467C51.2347 108.1 31.1455 76.7253 32.028 27.5902C32.0597 25.8264 33.2782 24.2998 34.9799 23.8347C50.6398 19.5544 60.5856 15.5433 76.919 7.00367C78.1109 6.38046 79.541 6.3929 80.7231 7.03461C95.7176 15.1744 105.438 19.2124 121.912 23.8468C123.548 24.3071 124.738 25.7472 124.823 27.4448Z" fill="#363A9F"/>
<path d="M29.0088 38.3776L31.0233 52.7117L128.509 39.011L126.494 24.6769L29.0088 38.3776Z" fill="url(#paint0_radial_1_12)"/>
<path d="M65.0543 7.78652L79.3884 5.77199L94.8942 116.101L80.5601 118.116L65.0543 7.78652Z" fill="url(#paint1_radial_1_12)"/>
<path d="M128.677 23.9234C131.155 71.1305 111.53 110.075 79.8144 123.064C79.2812 123.283 78.6866 123.288 78.153 123.081C49.6524 112.012 27.3542 78.0477 28.4176 24.0219C28.439 22.9379 29.1961 21.9734 30.2739 21.6829C48.0773 16.883 59.2897 12.4075 77.798 2.81676C78.5404 2.43205 79.4282 2.43925 80.1668 2.83671C97.1711 11.9874 108.134 16.4959 126.85 21.6922C127.89 21.981 128.623 22.8887 128.677 23.9234Z" stroke="url(#paint2_radial_1_12)" stroke-width="3"/>
<path d="M126.306 25.5165C128.632 70.5372 109.9 107.652 79.6621 120.065C79.1304 120.283 78.5373 120.289 78.0052 120.082C50.8301 109.5 29.5548 77.1239 30.5323 25.6147C30.5529 24.532 31.3089 23.5683 32.3877 23.2772C49.3218 18.7079 60.0343 14.4329 77.6474 5.31615C78.3898 4.93192 79.2788 4.93911 80.0173 5.33608C96.2022 14.0355 106.677 18.3408 124.48 23.2865C125.521 23.5757 126.253 24.4832 126.306 25.5165Z" stroke="white" stroke-width="3"/>
<path d="M71.3838 23.7266C70.0492 22.8151 68.5436 22.3594 66.8672 22.3594C65.207 22.3594 63.848 22.7988 62.79 23.6777C61.7321 24.5404 61.2031 25.7611 61.2031 27.3398C61.2031 28.9023 61.9925 30.2858 63.5713 31.4902C64.5153 32.2227 66.444 33.2155 69.3574 34.4688C72.2708 35.722 74.2972 36.8776 75.4365 37.9355C77.6175 39.9538 78.708 42.0534 78.708 44.2344V45.1133C78.708 47.8151 77.6338 50.0124 75.4854 51.7051C74.4925 52.4863 73.2555 53.113 71.7744 53.585C70.2933 54.0407 68.8122 54.2686 67.3311 54.2686H66.4277C63.0749 54.2686 60.137 53.764 57.6143 52.7549C56.4749 52.2992 55.9053 51.054 55.9053 49.0195V48.165C55.9053 45.7562 56.3203 44.5518 57.1504 44.5518C57.7201 44.5518 58.4932 45.3249 59.4697 46.8711C60.4463 48.4173 61.5693 49.5811 62.8389 50.3623C64.1247 51.1436 65.6709 51.5342 67.4775 51.5342C69.2842 51.5342 70.7409 51.0622 71.8477 50.1182C72.9544 49.1579 73.5078 47.9779 73.5078 46.5781C73.5078 44.6576 72.6126 43.0381 70.8223 41.7197C70.0573 41.1663 68.1367 40.1816 65.0605 38.7656C61.9844 37.3333 59.8522 35.9987 58.6641 34.7617C57.0365 33.069 56.2227 31.002 56.2227 28.5605C56.2227 26.1191 57.0934 24.0928 58.835 22.4814C59.7952 21.5863 60.9915 20.8945 62.4238 20.4062C63.8561 19.9017 65.321 19.6494 66.8184 19.6494H67.7217C68.3402 19.6494 69.2191 19.7552 70.3584 19.9668L71.2129 20.1377C72.222 20.333 72.7673 20.4388 72.8486 20.4551L73.6055 20.5039L74.3379 20.5283C75.0215 20.5771 75.5016 20.6585 75.7783 20.7725C76.7386 21.1631 77.2188 22.5221 77.2188 24.8496C77.2188 27.1771 76.763 28.3408 75.8516 28.3408C75.3958 28.3408 74.7122 27.6898 73.8008 26.3877C72.8893 25.0856 72.0837 24.1986 71.3838 23.7266Z" fill="white"/>
<path d="M102.755 41.918C104.073 41.918 105.033 42.2435 105.636 42.8945C106.254 43.5293 106.563 44.9046 106.563 47.0205C106.563 48.2087 106.295 48.8027 105.758 48.8027C105.693 48.8027 105.172 48.4202 104.195 47.6553C103.219 46.874 102.389 46.3451 101.705 46.0684C100.012 45.401 97.9128 45.0674 95.4062 45.0674C93.8275 45.0674 92.7207 45.5801 92.0859 46.6055C91.4512 47.6309 91.1338 49.6654 91.1338 52.709C91.1338 54.418 91.443 55.5817 92.0615 56.2002C92.68 56.8187 93.5996 57.1279 94.8203 57.1279C96.0573 57.1279 97.2373 56.7861 98.3604 56.1025C99.4997 55.4189 100.102 55.0771 100.167 55.0771C100.769 55.0771 101.192 55.3538 101.436 55.9072C101.697 56.4606 101.827 57.3558 101.827 58.5928C101.827 61.3271 101.144 62.6943 99.7764 62.6943C99.5485 62.6943 98.9544 62.4502 97.9941 61.9619C97.0501 61.4574 96.3584 61.2051 95.9189 61.2051C94.3564 61.2051 93.1764 61.5143 92.3789 62.1328C91.5977 62.735 91.207 63.9639 91.207 65.8193C91.207 67.6748 91.3698 69.2861 91.6953 70.6533C92.0208 72.0205 92.2812 72.8831 92.4766 73.2412C92.6719 73.5993 92.8997 73.9736 93.1602 74.3643C93.4368 74.7549 93.5752 75.0316 93.5752 75.1943C93.5752 75.7965 92.4766 76.0977 90.2793 76.0977H89.4248L88.5703 76.0732C84.127 76.0732 81.9053 75.6257 81.9053 74.7305C81.9053 74.2747 82.3366 73.7702 83.1992 73.2168C84.0781 72.6634 84.6152 72.0775 84.8105 71.459C85.0059 70.8405 85.1035 69.3431 85.1035 66.9668V62.084L85.1768 59.4717L85.2012 56.835V54.1738C85.2012 50.3978 85.0547 48.0052 84.7617 46.9961C84.4688 45.9707 84.07 45.279 83.5654 44.9209C82.3285 44.0257 81.71 43.4967 81.71 43.334C81.71 42.7806 82.0436 42.4225 82.7109 42.2598C83.1341 42.1621 84.5094 42.1133 86.8369 42.1133L92.9648 41.9912L95.626 41.918H102.755Z" fill="white"/>
<path d="M75.9229 81.5225V81.376C75.9229 79.846 74.6126 76.0212 71.9922 69.9014C71.5365 68.8434 71.3005 68.3145 71.2842 68.3145L70.5762 69.9502C67.8743 76.249 66.5234 80.0739 66.5234 81.4248C66.5234 81.6527 66.6618 81.7747 66.9385 81.791C67.2314 81.8073 67.4512 81.8154 67.5977 81.8154L69.502 81.8643H71.2354L71.4062 81.8398C74.4173 81.8398 75.9229 81.734 75.9229 81.5225ZM55.5615 94.5352C55.5615 94.1283 56.0254 93.6562 56.9531 93.1191C57.8809 92.582 58.5645 91.8984 59.0039 91.0684C59.4434 90.2383 60.0618 88.7409 60.8594 86.5762C61.6569 84.3952 62.7393 81.6527 64.1064 78.3486C65.4899 75.0446 66.5804 72.0824 67.3779 69.4619C68.1917 66.8252 68.7451 65.1569 69.0381 64.457C69.7054 62.862 70.6494 62.0645 71.8701 62.0645H72.5537C72.863 62.0645 73.2454 62.2354 73.7012 62.5771C74.6289 63.277 75.5973 64.7744 76.6064 67.0693C76.9482 67.8506 77.4609 69.1934 78.1445 71.0977C78.8281 72.9857 80.1953 76.6885 82.2461 82.2061C84.2969 87.7236 85.4443 90.7266 85.6885 91.2148C86.0954 92.0612 86.7871 92.7448 87.7637 93.2656C88.7402 93.7702 89.2285 94.1771 89.2285 94.4863C89.2285 95.1699 88.8216 95.5931 88.0078 95.7559C87.4544 95.8698 86.0547 95.9268 83.8086 95.9268L82.3926 95.9512C79.3815 95.9512 77.876 95.5443 77.876 94.7305C77.876 94.584 78.0632 94.234 78.4375 93.6807C78.8281 93.1273 79.0234 92.4274 79.0234 91.5811C79.0234 90.7347 78.7142 89.5221 78.0957 87.9434C77.4935 86.3646 76.9808 85.388 76.5576 85.0137C76.1507 84.6393 74.3848 84.4521 71.2598 84.4521C68.1348 84.4521 66.3118 84.623 65.791 84.9648C65.2702 85.3066 64.7087 86.2262 64.1064 87.7236C63.5042 89.221 63.2031 90.4417 63.2031 91.3857C63.2031 92.3135 63.488 93.1354 64.0576 93.8516C64.6436 94.5677 64.9365 94.9421 64.9365 94.9746C64.9365 95.5605 63.9355 95.8535 61.9336 95.8535C59.9479 95.8535 58.3854 95.7803 57.2461 95.6338C56.123 95.471 55.5615 95.1048 55.5615 94.5352Z" fill="white"/>
<path d="M22.7422 131.12C22.9022 131.312 23.0142 131.467 23.0782 131.584C23.1422 131.701 23.1742 131.813 23.1742 131.92C23.1742 132.048 23.0889 132.197 22.9182 132.368C22.7582 132.539 22.5982 132.624 22.4382 132.624C22.2249 132.624 22.0542 132.592 21.9262 132.528C21.7982 132.464 21.6915 132.363 21.6062 132.224C21.4355 131.968 21.2275 131.749 20.9822 131.568C20.7369 131.376 20.3529 131.28 19.8302 131.28C19.3822 131.28 18.8702 131.381 18.2942 131.584C17.7289 131.787 17.3235 132.037 17.0782 132.336C16.8649 132.603 16.6782 133.008 16.5182 133.552C16.3689 134.096 16.2942 134.624 16.2942 135.136C16.2942 135.755 16.4275 136.325 16.6942 136.848C16.9715 137.36 17.3662 137.771 17.8782 138.08C18.4009 138.389 19.0249 138.544 19.7502 138.544C20.1449 138.544 20.5502 138.469 20.9662 138.32C21.3929 138.16 21.7609 137.904 22.0702 137.552H22.0542C22.2462 137.349 22.4862 137.248 22.7742 137.248C22.9449 137.248 23.1049 137.323 23.2542 137.472C23.4142 137.621 23.4942 137.771 23.4942 137.92C23.4942 138.08 23.4675 138.224 23.4142 138.352C23.3715 138.469 23.2862 138.603 23.1582 138.752C22.7209 139.243 22.2035 139.579 21.6062 139.76C21.0089 139.941 20.2942 140.032 19.4622 140.032C18.7262 140.032 17.9795 139.856 17.2222 139.504C16.4755 139.152 15.8995 138.725 15.4942 138.224C15.2809 137.915 15.0729 137.472 14.8702 136.896C14.6782 136.309 14.5822 135.835 14.5822 135.472C14.5822 134.544 14.7209 133.664 14.9982 132.832C15.2862 131.989 15.7129 131.317 16.2782 130.816C16.6515 130.475 17.1902 130.219 17.8942 130.048C18.5982 129.877 19.2435 129.792 19.8302 129.792C20.5449 129.792 21.1049 129.893 21.5102 130.096C21.9262 130.288 22.3369 130.629 22.7422 131.12ZM31.2475 134.864C31.3328 135.013 31.4021 135.232 31.4555 135.52C31.5088 135.797 31.5355 136.048 31.5355 136.272C31.5355 136.688 31.4448 137.28 31.2635 138.048C30.5275 139.392 29.4395 140.064 27.9995 140.064C27.4661 140.064 26.9221 139.888 26.3675 139.536C25.8128 139.184 25.4288 138.779 25.2155 138.32C24.9275 137.403 24.7835 136.821 24.7835 136.576C24.7835 136.149 24.8741 135.696 25.0555 135.216C25.2475 134.736 25.4875 134.32 25.7755 133.968C25.9568 133.723 26.2821 133.515 26.7515 133.344C27.2208 133.163 27.6475 133.072 28.0315 133.072C28.7781 133.072 29.4128 133.216 29.9355 133.504C30.4581 133.781 30.8955 134.235 31.2475 134.864ZM29.8555 137.44C29.9088 137.301 29.9355 136.944 29.9355 136.368C29.9355 136.059 29.8768 135.755 29.7595 135.456C29.6528 135.157 29.4928 134.901 29.2795 134.688C29.2581 134.667 29.1995 134.635 29.1035 134.592C29.0075 134.539 28.8741 134.491 28.7035 134.448C28.5435 134.395 28.3568 134.368 28.1435 134.368C27.5461 134.368 27.1088 134.608 26.8315 135.088C26.5541 135.568 26.4155 136.112 26.4155 136.72C26.4155 136.827 26.4421 137.029 26.4955 137.328C26.5595 137.627 26.6128 137.813 26.6555 137.888C26.6875 137.963 26.7675 138.069 26.8955 138.208C27.0341 138.336 27.1995 138.453 27.3915 138.56C27.5941 138.656 27.8021 138.704 28.0155 138.704C28.4955 138.704 28.8795 138.592 29.1675 138.368C29.4555 138.133 29.6848 137.824 29.8555 137.44ZM34.891 137.52C34.891 137.925 34.9496 138.24 35.067 138.464C35.195 138.677 35.355 138.784 35.547 138.784C35.6536 138.784 35.755 138.779 35.851 138.768C35.947 138.747 36.043 138.736 36.139 138.736C36.2456 138.736 36.3363 138.789 36.411 138.896C36.4963 139.003 36.539 139.12 36.539 139.248C36.539 139.504 36.4163 139.707 36.171 139.856C35.9363 139.995 35.6163 140.064 35.211 140.064C34.923 140.064 34.6296 139.979 34.331 139.808C34.043 139.627 33.803 139.349 33.611 138.976C33.419 138.592 33.323 138.117 33.323 137.552C33.323 136.336 33.3443 135.307 33.387 134.464C33.4403 133.461 33.467 132.197 33.467 130.672C33.467 130.192 33.4936 129.856 33.547 129.664C33.611 129.515 33.7123 129.403 33.851 129.328C34.0003 129.243 34.155 129.2 34.315 129.2C34.475 129.2 34.6136 129.227 34.731 129.28C34.859 129.333 34.9443 129.419 34.987 129.536C35.0296 129.664 35.0563 129.792 35.067 129.92C35.0883 130.037 35.099 130.208 35.099 130.432C35.099 130.869 35.083 131.291 35.051 131.696C35.0296 132.187 35.019 132.544 35.019 132.768C34.9336 134.645 34.891 136.229 34.891 137.52ZM37.4702 136.336C37.4702 135.685 37.6142 135.147 37.9022 134.72C38.1902 134.283 38.5902 133.872 39.1022 133.488C39.2515 133.381 39.5022 133.291 39.8542 133.216C40.2062 133.131 40.5155 133.088 40.7822 133.088C41.1022 133.088 41.4382 133.157 41.7902 133.296C42.1529 133.424 42.4462 133.573 42.6702 133.744C43.0649 134.032 43.3369 134.368 43.4862 134.752C43.6355 135.125 43.7102 135.573 43.7102 136.096C43.7102 136.32 43.5822 136.539 43.3262 136.752C43.0809 136.955 42.8142 137.056 42.5262 137.056L41.9182 137.04C41.6089 137.04 41.1662 137.051 40.5902 137.072L40.2542 137.088C40.0195 137.109 39.8435 137.12 39.7262 137.12C39.5555 137.12 39.3209 137.099 39.0222 137.056C39.0649 137.557 39.2515 137.952 39.5822 138.24C39.9129 138.517 40.2702 138.656 40.6542 138.656C41.3262 138.656 41.7955 138.523 42.0622 138.256C42.2862 138.096 42.4355 137.995 42.5102 137.952C42.5849 137.909 42.7022 137.888 42.8622 137.888C43.0329 137.888 43.1822 137.968 43.3102 138.128C43.4382 138.288 43.5022 138.448 43.5022 138.608C43.5022 138.789 43.3902 138.976 43.1662 139.168C42.9529 139.349 42.6595 139.541 42.2862 139.744C42.0835 139.829 41.8062 139.904 41.4542 139.968C41.1022 140.032 40.8089 140.064 40.5742 140.064C40.2009 140.064 39.7849 139.957 39.3262 139.744C38.8675 139.52 38.5262 139.275 38.3022 139.008C38.0782 138.741 37.8809 138.363 37.7102 137.872C37.5502 137.381 37.4702 136.869 37.4702 136.336ZM40.6542 135.904C41.4115 135.904 41.9662 135.877 42.3182 135.824C42.2969 135.515 42.2009 135.264 42.0302 135.072C41.8595 134.869 41.6249 134.699 41.3262 134.56C41.2302 134.517 41.1449 134.485 41.0702 134.464C40.9955 134.443 40.9102 134.432 40.8142 134.432C40.3235 134.432 39.9075 134.565 39.5662 134.832C39.2355 135.099 39.0382 135.44 38.9742 135.856C39.5075 135.888 40.0675 135.904 40.6542 135.904ZM51.368 135.984C51.368 136.475 51.2453 136.891 51 137.232C50.7546 137.563 50.4293 137.856 50.024 138.112C49.4693 138.411 48.824 138.565 48.088 138.576C48.0453 138.704 48.024 138.837 48.024 138.976C48.024 139.104 48.0933 139.2 48.232 139.264C48.3813 139.317 48.6426 139.36 49.016 139.392C49.3253 139.413 49.672 139.483 50.056 139.6C50.4506 139.707 50.76 139.829 50.984 139.968C51.2613 140.171 51.4533 140.389 51.56 140.624C51.6773 140.859 51.736 141.152 51.736 141.504C51.736 141.963 51.5226 142.347 51.096 142.656C50.68 142.976 50.1893 143.211 49.624 143.36C49.0586 143.509 48.5626 143.584 48.136 143.584C47.624 143.584 47.1866 143.52 46.824 143.392C46.472 143.275 46.136 143.109 45.816 142.896C45.592 142.736 45.416 142.533 45.288 142.288C45.16 142.043 45.096 141.787 45.096 141.52C45.096 141.253 45.1813 140.997 45.352 140.752C45.5333 140.507 45.752 140.293 46.008 140.112C46.264 139.941 46.504 139.824 46.728 139.76C46.6426 139.653 46.5786 139.563 46.536 139.488C46.504 139.403 46.488 139.307 46.488 139.2C46.488 138.837 46.5786 138.533 46.76 138.288C46.248 138.117 45.8426 137.813 45.544 137.376C45.256 136.939 45.112 136.427 45.112 135.84C45.112 135.456 45.2026 135.109 45.384 134.8C45.5653 134.48 45.816 134.176 46.136 133.888C46.68 133.397 47.432 133.152 48.392 133.152C48.52 133.152 48.696 133.173 48.92 133.216C49.144 133.259 49.3626 133.317 49.576 133.392C49.9173 133.243 50.3173 133.088 50.776 132.928C51.2346 132.768 51.544 132.688 51.704 132.688C51.9493 132.688 52.1306 132.731 52.248 132.816C52.376 132.891 52.44 133.061 52.44 133.328C52.44 133.573 52.296 133.749 52.008 133.856C51.7306 133.963 51.3093 134.064 50.744 134.16C51.16 134.661 51.368 135.269 51.368 135.984ZM48.04 137.264C48.6586 137.264 49.1066 137.136 49.384 136.88C49.672 136.624 49.816 136.24 49.816 135.728C49.816 134.885 49.32 134.464 48.328 134.464C47.944 134.464 47.64 134.507 47.416 134.592C47.2026 134.677 47.0266 134.821 46.888 135.024C46.696 135.28 46.6 135.627 46.6 136.064C46.6 136.405 46.7386 136.693 47.016 136.928C47.304 137.152 47.6453 137.264 48.04 137.264ZM46.6 141.632C46.6 141.813 46.7653 141.968 47.096 142.096C47.4373 142.235 47.8 142.304 48.184 142.304C48.6106 142.304 49.048 142.224 49.496 142.064C49.9546 141.915 50.184 141.712 50.184 141.456C50.184 141.083 49.8533 140.843 49.192 140.736C48.9573 140.693 48.616 140.613 48.168 140.496C48.1146 140.485 48.0506 140.469 47.976 140.448C47.912 140.427 47.8426 140.405 47.768 140.384C47.5333 140.469 47.2773 140.645 47 140.912C46.7333 141.189 46.6 141.429 46.6 141.632ZM54.133 129.728C54.5063 129.76 54.8263 129.861 55.093 130.032C55.3703 130.192 55.509 130.437 55.509 130.768C55.509 131.013 55.397 131.211 55.173 131.36C54.949 131.499 54.6716 131.568 54.341 131.568C54.0316 131.568 53.8183 131.488 53.701 131.328C53.5836 131.168 53.525 131.003 53.525 130.832C53.525 130.523 53.5623 130.261 53.637 130.048C53.7116 129.824 53.877 129.717 54.133 129.728ZM53.813 136.336V135.872C53.813 135.339 53.7863 134.853 53.733 134.416C53.6903 133.968 53.6636 133.691 53.653 133.584C53.6636 133.467 53.7436 133.355 53.893 133.248C54.0423 133.141 54.1756 133.088 54.293 133.088C54.4956 133.088 54.6983 133.131 54.901 133.216C55.1143 133.291 55.2476 133.387 55.301 133.504C55.3543 133.899 55.381 134.203 55.381 134.416C55.381 134.885 55.4023 135.653 55.445 136.72L55.461 137.344L55.493 137.952C55.5036 138.123 55.5143 138.325 55.525 138.56C55.5356 138.795 55.541 139.061 55.541 139.36C55.541 139.563 55.4396 139.733 55.237 139.872C55.045 140.011 54.8423 140.08 54.629 140.08C54.3196 140.08 54.101 140.011 53.973 139.872C53.8556 139.733 53.797 139.515 53.797 139.216L53.813 136.336ZM63.7475 134.864C63.8328 135.013 63.9021 135.232 63.9555 135.52C64.0088 135.797 64.0355 136.048 64.0355 136.272C64.0355 136.688 63.9448 137.28 63.7635 138.048C63.0275 139.392 61.9395 140.064 60.4995 140.064C59.9661 140.064 59.4221 139.888 58.8675 139.536C58.3128 139.184 57.9288 138.779 57.7155 138.32C57.4275 137.403 57.2835 136.821 57.2835 136.576C57.2835 136.149 57.3741 135.696 57.5555 135.216C57.7475 134.736 57.9875 134.32 58.2755 133.968C58.4568 133.723 58.7821 133.515 59.2515 133.344C59.7208 133.163 60.1475 133.072 60.5315 133.072C61.2781 133.072 61.9128 133.216 62.4355 133.504C62.9581 133.781 63.3955 134.235 63.7475 134.864ZM62.3555 137.44C62.4088 137.301 62.4355 136.944 62.4355 136.368C62.4355 136.059 62.3768 135.755 62.2595 135.456C62.1528 135.157 61.9928 134.901 61.7795 134.688C61.7581 134.667 61.6995 134.635 61.6035 134.592C61.5075 134.539 61.3741 134.491 61.2035 134.448C61.0435 134.395 60.8568 134.368 60.6435 134.368C60.0461 134.368 59.6088 134.608 59.3315 135.088C59.0541 135.568 58.9155 136.112 58.9155 136.72C58.9155 136.827 58.9421 137.029 58.9955 137.328C59.0595 137.627 59.1128 137.813 59.1555 137.888C59.1875 137.963 59.2675 138.069 59.3955 138.208C59.5341 138.336 59.6995 138.453 59.8915 138.56C60.0941 138.656 60.3021 138.704 60.5155 138.704C60.9955 138.704 61.3795 138.592 61.6675 138.368C61.9555 138.133 62.1848 137.824 62.3555 137.44ZM73.4487 136.384C73.0327 136.384 72.6807 136.373 72.3927 136.352C72.1154 136.32 71.7474 136.272 71.2887 136.208L71.2727 137.888C71.262 138.176 71.2567 138.587 71.2567 139.12C71.2567 139.397 71.1767 139.616 71.0167 139.776C70.8674 139.925 70.6967 140 70.5047 140C70.1527 140 69.8914 139.957 69.7207 139.872C69.55 139.776 69.4647 139.611 69.4647 139.376C69.4647 139.067 69.4914 138.629 69.5447 138.064C69.662 136.848 69.7207 135.6 69.7207 134.32C69.7207 133.125 69.6834 132 69.6087 130.944C69.6194 130.795 69.694 130.624 69.8327 130.432C69.982 130.24 70.1687 130.133 70.3927 130.112C70.638 130.112 71.0274 130.069 71.5607 129.984C72.1154 129.899 72.5367 129.856 72.8247 129.856C73.6994 129.856 74.3767 129.941 74.8567 130.112C75.3474 130.283 75.838 130.565 76.3287 130.96C76.862 131.792 77.1287 132.379 77.1287 132.72C77.1287 133.435 76.9847 134.069 76.6967 134.624C76.4087 135.179 75.9874 135.611 75.4327 135.92C74.878 136.229 74.2167 136.384 73.4487 136.384ZM73.0807 131.216C72.7394 131.216 72.4407 131.237 72.1847 131.28C71.9394 131.312 71.6407 131.371 71.2887 131.456C71.3314 132.437 71.3527 133.152 71.3527 133.6C71.3527 134.059 71.3367 134.443 71.3047 134.752C71.7634 134.848 72.126 134.912 72.3927 134.944C72.6594 134.965 72.958 134.976 73.2887 134.976C74.078 134.976 74.6327 134.773 74.9527 134.368C75.2834 133.952 75.4487 133.472 75.4487 132.928C75.4487 132.768 75.4007 132.571 75.3047 132.336C75.2087 132.101 75.1234 131.947 75.0487 131.872C74.7607 131.616 74.478 131.445 74.2007 131.36C73.934 131.264 73.5607 131.216 73.0807 131.216ZM84.4133 140.064C84.0507 140.064 83.7733 140.011 83.5813 139.904C83.3893 139.787 83.1813 139.573 82.9573 139.264C82.68 139.509 82.264 139.707 81.7093 139.856C81.1653 140.005 80.696 140.08 80.3013 140.08C79.6507 140.08 79.1227 139.904 78.7173 139.552C78.3227 139.189 78.1253 138.661 78.1253 137.968C78.1253 137.669 78.2053 137.397 78.3653 137.152C78.536 136.896 78.7547 136.672 79.0213 136.48C79.32 136.277 79.672 136.117 80.0773 136C80.4933 135.883 80.872 135.824 81.2133 135.824C81.7893 135.824 82.3013 135.877 82.7493 135.984V135.968C82.7493 135.392 82.6053 134.997 82.3173 134.784C82.04 134.56 81.592 134.448 80.9733 134.448C80.5787 134.448 80.2373 134.624 79.9493 134.976C79.8427 135.115 79.6187 135.184 79.2773 135.184C79.1067 135.184 78.9787 135.115 78.8933 134.976C78.8187 134.827 78.7813 134.677 78.7813 134.528C78.7813 134.219 78.9093 133.952 79.1653 133.728C79.432 133.504 79.752 133.339 80.1253 133.232C80.4987 133.115 80.8453 133.056 81.1653 133.056C81.4747 133.056 81.8427 133.12 82.2693 133.248C82.696 133.376 83.0427 133.547 83.3093 133.76C83.6293 134.037 83.8747 134.363 84.0453 134.736C84.2267 135.099 84.3173 135.499 84.3173 135.936C84.3173 136.075 84.3067 136.283 84.2853 136.56C84.264 136.88 84.2533 137.141 84.2533 137.344C84.2533 137.44 84.2427 137.563 84.2213 137.712C84.2 137.904 84.1893 138.064 84.1893 138.192C84.1893 138.331 84.232 138.464 84.3173 138.592C84.4027 138.72 84.52 138.827 84.6693 138.912C84.808 138.987 84.8987 139.067 84.9413 139.152C84.984 139.237 85.0053 139.333 85.0053 139.44C85.0053 139.547 84.936 139.68 84.7973 139.84C84.6693 139.989 84.5413 140.064 84.4133 140.064ZM81.2133 137.008C80.7973 137.008 80.4293 137.088 80.1093 137.248C79.7893 137.408 79.6293 137.691 79.6293 138.096C79.6293 138.299 79.6987 138.469 79.8373 138.608C79.9867 138.747 80.1467 138.816 80.3173 138.816C80.776 138.816 81.16 138.768 81.4693 138.672C81.7787 138.576 82.152 138.4 82.5893 138.144C82.6427 137.973 82.6747 137.733 82.6853 137.424C82.6853 137.307 82.6907 137.216 82.7013 137.152C82.1253 137.056 81.6293 137.008 81.2133 137.008ZM88.4323 139.36C88.411 139.541 88.3363 139.701 88.2083 139.84C88.0803 139.979 87.915 140.048 87.7123 140.048C87.3923 140.048 87.1577 139.989 87.0083 139.872C86.859 139.744 86.7843 139.515 86.7843 139.184C86.7843 138.736 86.811 138.245 86.8643 137.712C86.907 137.093 86.9283 136.619 86.9283 136.288C86.9283 136.117 86.9177 135.904 86.8963 135.648C86.875 135.413 86.8643 135.237 86.8643 135.12C86.8323 134.939 86.7577 134.795 86.6403 134.688C86.5337 134.581 86.363 134.491 86.1283 134.416C86.0323 134.373 85.9523 134.304 85.8883 134.208C85.8243 134.101 85.7923 134.005 85.7923 133.92C85.7923 133.675 85.8883 133.488 86.0803 133.36C86.2723 133.232 86.507 133.168 86.7843 133.168C87.0937 133.168 87.3603 133.275 87.5843 133.488C87.8083 133.701 87.979 133.968 88.0963 134.288C88.3417 133.936 88.6403 133.653 88.9923 133.44C89.355 133.227 89.707 133.12 90.0483 133.12C90.4857 133.12 90.8537 133.195 91.1523 133.344C91.4617 133.483 91.6163 133.728 91.6163 134.08C91.6163 134.283 91.5257 134.496 91.3443 134.72C91.1737 134.933 90.9977 135.04 90.8163 135.04C90.6777 135.04 90.5123 134.976 90.3203 134.848C90.2457 134.795 90.1603 134.752 90.0643 134.72C89.979 134.677 89.8883 134.656 89.7923 134.656C89.6217 134.656 89.4617 134.683 89.3123 134.736C89.163 134.789 89.0617 134.853 89.0083 134.928C88.8377 135.195 88.7097 135.435 88.6243 135.648C88.5497 135.861 88.5123 136.091 88.5123 136.336C88.5123 136.517 88.507 136.661 88.4963 136.768L88.4803 137.68L88.4963 138.288C88.4963 138.736 88.475 139.093 88.4323 139.36ZM94.9357 139.36C94.9357 139.541 94.8664 139.701 94.7277 139.84C94.589 139.979 94.4184 140.048 94.2157 140.048C93.8957 140.048 93.661 139.989 93.5117 139.872C93.3624 139.744 93.2877 139.515 93.2877 139.184C93.2877 138.789 93.277 138.272 93.2557 137.632C93.2344 137.099 93.2237 136.651 93.2237 136.288C93.2237 136.117 93.2344 135.893 93.2557 135.616C93.277 135.36 93.2877 135.168 93.2877 135.04C93.2557 134.837 93.1757 134.672 93.0477 134.544C92.9197 134.405 92.7544 134.336 92.5517 134.336C92.4557 134.336 92.3757 134.293 92.3117 134.208C92.2477 134.112 92.2157 134.016 92.2157 133.92C92.2157 133.675 92.3117 133.488 92.5037 133.36C92.7064 133.232 92.9464 133.168 93.2237 133.168C93.7997 133.168 94.1997 133.509 94.4237 134.192C94.701 133.872 95.0157 133.616 95.3677 133.424C95.7304 133.221 96.077 133.12 96.4077 133.12C96.8024 133.12 97.1597 133.227 97.4797 133.44C97.8104 133.653 97.9757 133.941 97.9757 134.304C97.9757 134.507 97.885 134.715 97.7037 134.928C97.533 135.141 97.357 135.248 97.1757 135.248C97.0797 135.248 96.9944 135.227 96.9197 135.184C96.8557 135.131 96.7757 135.056 96.6797 134.96C96.573 134.853 96.4824 134.779 96.4077 134.736C96.333 134.683 96.2477 134.656 96.1517 134.656C95.981 134.656 95.821 134.683 95.6717 134.736C95.5224 134.789 95.421 134.853 95.3677 134.928C95.197 135.195 95.069 135.435 94.9837 135.648C94.909 135.861 94.8717 136.091 94.8717 136.336C94.8717 136.517 94.8664 136.661 94.8557 136.768L94.8397 137.68C94.8397 137.819 94.845 137.973 94.8557 138.144C94.8664 138.315 94.877 138.443 94.8877 138.528C94.9197 138.816 94.9357 139.093 94.9357 139.36ZM105.231 134.864C105.316 135.013 105.386 135.232 105.439 135.52C105.492 135.797 105.519 136.048 105.519 136.272C105.519 136.571 105.471 136.944 105.375 137.392C105.279 137.829 105.199 138.123 105.135 138.272C104.559 139.467 103.45 140.064 101.807 140.064C101.284 140.064 100.772 139.893 100.271 139.552C99.7698 139.2 99.4124 138.789 99.1991 138.32L99.0871 138C99.0764 137.957 99.0178 137.797 98.9111 137.52C98.8151 137.232 98.7671 137.013 98.7671 136.864C98.7671 136.427 98.8738 135.92 99.0871 135.344C99.3004 134.768 99.5458 134.309 99.8231 133.968C100.004 133.723 100.351 133.515 100.863 133.344C101.375 133.163 101.828 133.072 102.223 133.072C102.959 133.072 103.551 133.211 103.999 133.488C104.458 133.765 104.868 134.224 105.231 134.864ZM103.759 137.44C103.802 137.365 103.839 137.232 103.871 137.04C103.903 136.848 103.919 136.624 103.919 136.368C103.919 136.059 103.86 135.755 103.743 135.456C103.636 135.157 103.476 134.901 103.263 134.688C103.252 134.667 103.215 134.635 103.151 134.592C103.087 134.539 102.986 134.491 102.847 134.448C102.708 134.395 102.532 134.368 102.319 134.368C101.903 134.368 101.551 134.491 101.263 134.736C100.975 134.981 100.756 135.285 100.607 135.648C100.468 136.011 100.399 136.368 100.399 136.72C100.399 136.816 100.431 137.013 100.495 137.312C100.559 137.611 100.607 137.803 100.639 137.888C100.724 138.037 100.89 138.213 101.135 138.416C101.38 138.608 101.658 138.704 101.967 138.704C102.447 138.704 102.82 138.592 103.087 138.368C103.364 138.144 103.588 137.835 103.759 137.44ZM112.892 133.04C113.052 133.04 113.207 133.088 113.356 133.184C113.516 133.269 113.596 133.413 113.596 133.616C113.596 133.755 113.532 134.069 113.404 134.56C113.308 134.944 113.255 135.184 113.244 135.28C113.116 136.261 113.052 137.653 113.052 139.456C113.052 140 113.068 140.448 113.1 140.8C113.132 141.163 113.175 141.6 113.228 142.112C113.271 142.475 113.292 142.688 113.292 142.752C113.292 142.976 113.217 143.168 113.068 143.328C112.919 143.499 112.748 143.584 112.556 143.584C112.3 143.584 112.113 143.531 111.996 143.424C111.889 143.317 111.815 143.163 111.772 142.96C111.719 142.587 111.665 142.117 111.612 141.552C111.569 140.997 111.548 140.507 111.548 140.08C111.548 139.835 111.553 139.6 111.564 139.376C111.575 139.152 111.58 139.003 111.58 138.928C111.377 139.173 111.084 139.365 110.7 139.504C110.327 139.632 109.975 139.696 109.644 139.696C109.228 139.696 108.876 139.643 108.588 139.536C108.311 139.419 108.017 139.205 107.708 138.896C107.441 138.629 107.223 138.325 107.052 137.984C106.892 137.643 106.812 137.285 106.812 136.912C106.812 136.411 106.865 135.925 106.972 135.456C107.079 134.987 107.249 134.592 107.484 134.272C107.825 133.877 108.241 133.584 108.732 133.392C109.223 133.189 109.724 133.088 110.236 133.088C110.513 133.088 110.807 133.152 111.116 133.28C111.425 133.408 111.703 133.573 111.948 133.776C112.044 133.531 112.177 133.349 112.348 133.232C112.519 133.104 112.7 133.04 112.892 133.04ZM109.884 138.4C110.193 138.4 110.503 138.299 110.812 138.096C111.132 137.893 111.34 137.632 111.436 137.312C111.511 136.832 111.559 136.117 111.58 135.168C111.409 134.944 111.196 134.779 110.94 134.672C110.684 134.555 110.46 134.496 110.268 134.496C110.023 134.496 109.756 134.544 109.468 134.64C109.191 134.736 108.983 134.875 108.844 135.056C108.545 135.515 108.396 136.064 108.396 136.704C108.396 136.981 108.423 137.216 108.476 137.408C108.529 137.6 108.636 137.76 108.796 137.888C108.999 138.048 109.18 138.176 109.34 138.272C109.511 138.357 109.692 138.4 109.884 138.4ZM114.92 134.608C114.835 134.608 114.755 134.576 114.68 134.512C114.616 134.437 114.584 134.352 114.584 134.256C114.584 134.011 114.691 133.781 114.904 133.568C114.968 133.536 115.096 133.483 115.288 133.408C115.48 133.333 115.651 133.296 115.8 133.296C116.205 133.296 116.536 133.408 116.792 133.632C117.048 133.845 117.176 134.155 117.176 134.56C117.176 134.677 117.155 134.928 117.112 135.312C117.069 135.76 117.048 136.107 117.048 136.352C117.048 137.099 117.149 137.701 117.352 138.16C117.427 138.309 117.544 138.427 117.704 138.512C117.864 138.597 118.008 138.64 118.136 138.64C118.445 138.64 118.696 138.587 118.888 138.48C119.08 138.373 119.288 138.203 119.512 137.968C119.736 137.733 119.88 137.467 119.944 137.168C120.019 136.869 120.072 136.459 120.104 135.936C120.125 135.595 120.147 135.344 120.168 135.184C120.221 134.672 120.248 134.235 120.248 133.872C120.248 133.637 120.312 133.445 120.44 133.296C120.568 133.136 120.744 133.056 120.968 133.056C121.096 133.056 121.24 133.099 121.4 133.184C121.571 133.259 121.683 133.349 121.736 133.456C121.8 133.563 121.832 133.739 121.832 133.984C121.832 134.112 121.816 134.235 121.784 134.352C121.709 134.619 121.672 134.939 121.672 135.312L121.688 136.144C121.688 136.901 121.741 137.461 121.848 137.824C121.901 137.995 121.976 138.171 122.072 138.352C122.168 138.523 122.259 138.667 122.344 138.784C122.557 139.019 122.696 139.184 122.76 139.28C122.824 139.365 122.856 139.451 122.856 139.536C122.856 139.664 122.792 139.787 122.664 139.904C122.547 140.011 122.419 140.064 122.28 140.064C121.885 140.064 121.544 139.931 121.256 139.664C120.968 139.397 120.755 139.051 120.616 138.624C120.253 139.04 119.917 139.376 119.608 139.632C119.395 139.781 119.133 139.893 118.824 139.968C118.515 140.032 118.205 140.064 117.896 140.064C117.48 140.064 117.059 139.893 116.632 139.552C116.205 139.211 115.917 138.816 115.768 138.368C115.757 138.347 115.725 138.261 115.672 138.112C115.629 137.963 115.608 137.739 115.608 137.44C115.608 137.045 115.629 136.549 115.672 135.952C115.704 135.568 115.72 135.216 115.72 134.896C115.72 134.8 115.683 134.72 115.608 134.656C115.544 134.592 115.469 134.56 115.384 134.56C115.32 134.56 115.245 134.571 115.16 134.592C115.085 134.603 115.005 134.608 114.92 134.608ZM124.884 129.728C125.257 129.76 125.582 129.861 125.86 130.032C126.137 130.192 126.276 130.437 126.276 130.768C126.276 131.013 126.158 131.211 125.924 131.36C125.7 131.499 125.428 131.568 125.108 131.568C124.798 131.568 124.585 131.488 124.468 131.328C124.35 131.168 124.292 131.003 124.292 130.832C124.292 130.512 124.324 130.245 124.388 130.032C124.462 129.819 124.628 129.717 124.884 129.728ZM126.164 136.816V137.28C126.164 137.696 126.174 138.091 126.196 138.464C126.228 138.827 126.265 139.195 126.308 139.568C126.308 139.696 126.233 139.813 126.084 139.92C125.934 140.016 125.796 140.064 125.668 140.064C125.465 140.064 125.257 140.027 125.044 139.952C124.841 139.867 124.718 139.765 124.676 139.648C124.612 139.307 124.58 139.003 124.58 138.736C124.58 137.861 124.553 136.88 124.5 135.792C124.457 134.832 124.436 134.16 124.436 133.776C124.436 133.584 124.532 133.419 124.724 133.28C124.916 133.141 125.118 133.072 125.332 133.072C125.641 133.072 125.854 133.141 125.972 133.28C126.1 133.419 126.164 133.637 126.164 133.936V136.816ZM135.425 139.232C135.425 139.467 135.297 139.664 135.041 139.824C134.785 139.984 134.551 140.064 134.337 140.064C133.943 140.064 133.623 140.016 133.377 139.92C133.143 139.813 132.919 139.621 132.705 139.344C132.439 139.589 132.065 139.776 131.585 139.904C131.105 140.021 130.663 140.08 130.257 140.08C129.596 140.08 129.047 139.904 128.609 139.552C128.183 139.189 127.969 138.661 127.969 137.968C127.969 137.669 128.06 137.371 128.241 137.072C128.423 136.763 128.647 136.517 128.913 136.336C129.201 136.144 129.527 136.016 129.889 135.952C130.252 135.877 130.673 135.84 131.153 135.84C131.377 135.84 131.644 135.883 131.953 135.968C132.263 136.053 132.508 136.144 132.689 136.24V135.984C132.689 135.408 132.545 135.013 132.257 134.8C131.98 134.576 131.532 134.464 130.913 134.464C130.721 134.464 130.545 134.496 130.385 134.56C130.236 134.613 130.06 134.693 129.857 134.8C129.665 134.907 129.484 134.96 129.313 134.96C129.164 134.96 129.02 134.901 128.881 134.784C128.743 134.656 128.673 134.523 128.673 134.384C128.673 133.936 128.951 133.611 129.505 133.408C130.071 133.195 130.647 133.088 131.233 133.088C131.532 133.088 131.873 133.152 132.257 133.28C132.641 133.397 132.967 133.563 133.233 133.776C133.553 134.043 133.799 134.363 133.969 134.736C134.151 135.109 134.241 135.515 134.241 135.952C134.241 136.091 134.231 136.299 134.209 136.576C134.188 136.875 134.177 137.131 134.177 137.344L134.161 137.776C134.14 138.011 134.129 138.197 134.129 138.336C134.129 138.464 134.172 138.576 134.257 138.672C134.353 138.757 134.465 138.8 134.593 138.8L135.041 138.784C135.159 138.784 135.249 138.832 135.313 138.928C135.388 139.013 135.425 139.115 135.425 139.232ZM130.257 138.816C130.716 138.816 131.1 138.768 131.409 138.672C131.719 138.576 132.092 138.4 132.529 138.144C132.572 137.963 132.599 137.723 132.609 137.424C132.023 137.147 131.537 137.008 131.153 137.008C130.791 137.008 130.497 137.024 130.273 137.056C130.049 137.077 129.847 137.168 129.665 137.328C129.484 137.488 129.393 137.744 129.393 138.096C129.393 138.299 129.489 138.469 129.681 138.608C129.884 138.747 130.076 138.816 130.257 138.816ZM138.25 137.52C138.25 137.925 138.309 138.24 138.426 138.464C138.554 138.677 138.714 138.784 138.906 138.784C139.013 138.784 139.114 138.779 139.21 138.768C139.306 138.747 139.402 138.736 139.498 138.736C139.605 138.736 139.696 138.789 139.77 138.896C139.856 139.003 139.898 139.12 139.898 139.248C139.898 139.504 139.776 139.707 139.53 139.856C139.296 139.995 138.976 140.064 138.57 140.064C138.282 140.064 137.989 139.979 137.69 139.808C137.402 139.627 137.162 139.349 136.97 138.976C136.778 138.592 136.682 138.117 136.682 137.552C136.682 136.336 136.704 135.307 136.746 134.464C136.8 133.461 136.826 132.197 136.826 130.672C136.826 130.192 136.853 129.856 136.906 129.664C136.97 129.515 137.072 129.403 137.21 129.328C137.36 129.243 137.514 129.2 137.674 129.2C137.834 129.2 137.973 129.227 138.09 129.28C138.218 129.333 138.304 129.419 138.346 129.536C138.389 129.664 138.416 129.792 138.426 129.92C138.448 130.037 138.458 130.208 138.458 130.432C138.458 130.869 138.442 131.291 138.41 131.696C138.389 132.187 138.378 132.544 138.378 132.768C138.293 134.645 138.25 136.229 138.25 137.52ZM13.3448 156.104C13.3448 156.605 13.2274 157.037 12.9928 157.4C12.7688 157.752 12.3954 158.077 11.8728 158.376C11.5208 158.589 11.1101 158.749 10.6408 158.856C10.1714 158.963 9.69677 159.016 9.21677 159.016C8.72611 159.016 8.11811 158.856 7.39277 158.536C6.87011 158.28 6.45411 157.976 6.14477 157.624C5.84611 157.272 5.69677 156.888 5.69677 156.472C5.69677 156.184 5.76077 155.976 5.88877 155.848C6.01677 155.709 6.22477 155.64 6.51277 155.64C6.66211 155.64 6.81677 155.704 6.97677 155.832C7.13677 155.949 7.23277 156.067 7.26477 156.184C7.41411 156.621 7.67544 156.957 8.04877 157.192C8.42211 157.416 8.88611 157.528 9.44077 157.528C10.0808 157.528 10.6141 157.411 11.0408 157.176C11.4781 156.941 11.6968 156.627 11.6968 156.232C11.6968 155.848 11.4621 155.507 10.9928 155.208C10.5234 154.909 10.0434 154.701 9.55277 154.584C8.84877 154.392 8.22477 154.163 7.68077 153.896C7.11544 153.619 6.69411 153.277 6.41677 152.872C6.13944 152.467 6.00077 152.04 6.00077 151.592C6.00077 151.176 6.14477 150.755 6.43277 150.328C6.72077 149.891 7.06211 149.576 7.45677 149.384C7.67011 149.277 8.03277 149.165 8.54477 149.048C9.06744 148.92 9.44611 148.856 9.68077 148.856C9.99011 148.856 10.3314 148.893 10.7048 148.968C11.0781 149.043 11.3821 149.149 11.6168 149.288C12.0861 149.555 12.4328 149.795 12.6568 150.008C12.8808 150.221 12.9928 150.488 12.9928 150.808C12.9928 151 12.9181 151.171 12.7688 151.32C12.6301 151.469 12.3848 151.544 12.0328 151.544C11.9474 151.544 11.8621 151.507 11.7768 151.432C11.6914 151.357 11.5848 151.245 11.4568 151.096C11.2861 150.872 11.1208 150.723 10.9608 150.648C10.8008 150.595 10.5661 150.536 10.2568 150.472C9.95811 150.408 9.69144 150.376 9.45677 150.376C9.20077 150.376 8.93411 150.429 8.65677 150.536C8.37944 150.643 8.14477 150.797 7.95277 151C7.77144 151.192 7.68077 151.416 7.68077 151.672C7.68077 151.885 7.77677 152.072 7.96877 152.232C8.17144 152.381 8.41144 152.504 8.68877 152.6C9.00877 152.728 9.35544 152.84 9.72877 152.936C10.2194 153.085 10.6194 153.224 10.9288 153.352C11.2488 153.469 11.5581 153.619 11.8568 153.8C12.3794 154.109 12.7581 154.429 12.9928 154.76C13.2274 155.08 13.3448 155.528 13.3448 156.104ZM22.1211 158.232C22.1211 158.467 21.9931 158.664 21.7371 158.824C21.4918 158.984 21.2625 159.064 21.0491 159.064C20.6438 159.064 20.3185 159.016 20.0731 158.92C19.8385 158.813 19.6198 158.621 19.4171 158.344C19.1398 158.589 18.7611 158.776 18.2811 158.904C17.8011 159.021 17.3585 159.08 16.9531 159.08C16.2918 159.08 15.7478 158.904 15.3211 158.552C14.8945 158.189 14.6811 157.661 14.6811 156.968C14.6811 156.669 14.7611 156.397 14.9211 156.152C15.0811 155.896 15.2998 155.672 15.5771 155.48C15.8865 155.277 16.2385 155.123 16.6331 155.016C17.0278 154.899 17.4385 154.84 17.8651 154.84C18.0891 154.84 18.3558 154.883 18.6651 154.968C18.9745 155.053 19.2145 155.144 19.3851 155.24V154.984C19.3851 154.408 19.2465 154.013 18.9691 153.8C18.6918 153.576 18.2438 153.464 17.6251 153.464C17.4438 153.464 17.2625 153.501 17.0811 153.576C16.9105 153.651 16.7131 153.752 16.4891 153.88C16.1905 154.04 15.9078 154.12 15.6411 154.12C15.5451 154.12 15.4545 154.056 15.3691 153.928C15.2838 153.789 15.2411 153.667 15.2411 153.56C15.2411 153.251 15.3851 152.984 15.6731 152.76C15.9718 152.536 16.3238 152.371 16.7291 152.264C17.1345 152.147 17.4971 152.088 17.8171 152.088C18.1371 152.088 18.5051 152.152 18.9211 152.28C19.3371 152.397 19.6785 152.563 19.9451 152.776C20.2651 153.053 20.5105 153.379 20.6811 153.752C20.8625 154.115 20.9531 154.515 20.9531 154.952C20.9531 155.091 20.9425 155.299 20.9211 155.576C20.8998 155.875 20.8891 156.131 20.8891 156.344C20.8891 156.44 20.8785 156.584 20.8571 156.776C20.8358 157.011 20.8251 157.197 20.8251 157.336C20.8251 157.464 20.8731 157.576 20.9691 157.672C21.0651 157.757 21.1771 157.8 21.3051 157.8L21.7531 157.784C21.8705 157.784 21.9611 157.827 22.0251 157.912C22.0891 157.997 22.1211 158.104 22.1211 158.232ZM16.9691 157.816C17.4278 157.816 17.8118 157.768 18.1211 157.672C18.4305 157.576 18.8038 157.4 19.2411 157.144C19.2838 156.963 19.3105 156.723 19.3211 156.424C18.7345 156.147 18.2491 156.008 17.8651 156.008C17.4278 156.008 17.0385 156.088 16.6971 156.248C16.3558 156.408 16.1851 156.691 16.1851 157.096C16.1851 157.299 16.2705 157.469 16.4411 157.608C16.6118 157.747 16.7878 157.816 16.9691 157.816ZM30.4809 157.768C30.5342 157.789 30.6196 157.816 30.7369 157.848C30.8542 157.88 30.9396 157.912 30.9929 157.944C31.0462 157.976 31.0729 158.024 31.0729 158.088C31.0836 158.344 30.9876 158.557 30.7849 158.728C30.5929 158.888 30.3636 158.968 30.0969 158.968C29.6809 158.968 29.3556 158.856 29.1209 158.632C28.8862 158.408 28.7156 158.067 28.6089 157.608C28.5662 157.427 28.5449 157.176 28.5449 156.856C28.5449 156.675 28.5556 156.381 28.5769 155.976C28.5982 155.549 28.6089 155.208 28.6089 154.952C28.6089 154.579 28.5022 154.253 28.2889 153.976C28.0862 153.688 27.7982 153.544 27.4249 153.544C27.2009 153.544 26.9662 153.613 26.7209 153.752C26.4756 153.88 26.3049 154.04 26.2089 154.232C26.0489 154.541 25.9369 154.877 25.8729 155.24C25.7556 155.88 25.6969 156.547 25.6969 157.24C25.6969 157.571 25.7022 157.827 25.7129 158.008C25.7129 158.051 25.7129 158.136 25.7129 158.264C25.7236 158.381 25.7129 158.493 25.6809 158.6C25.6596 158.696 25.6169 158.787 25.5529 158.872C25.4996 158.925 25.4142 158.968 25.2969 159C25.1902 159.043 25.0889 159.064 24.9929 159.064C24.8436 159.064 24.6569 159 24.4329 158.872C24.2089 158.744 24.0809 158.6 24.0489 158.44L24.0329 158.168C24.0329 158.072 24.0436 157.96 24.0649 157.832C24.1929 157.085 24.2569 156.435 24.2569 155.88C24.2569 155.635 24.2516 155.443 24.2409 155.304L24.2249 154.552C24.2249 154.296 24.1609 154.051 24.0329 153.816C23.9049 153.571 23.7556 153.448 23.5849 153.448C23.5316 153.448 23.4569 153.469 23.3609 153.512C23.2649 153.544 23.1849 153.56 23.1209 153.56C23.0142 153.56 22.8969 153.507 22.7689 153.4C22.6516 153.293 22.5929 153.181 22.5929 153.064C22.5929 152.84 22.6676 152.659 22.8169 152.52C22.9769 152.392 23.1316 152.291 23.2809 152.216C23.4409 152.141 23.6222 152.104 23.8249 152.104C23.9956 152.104 24.1342 152.12 24.2409 152.152C24.3476 152.184 24.4916 152.253 24.6729 152.36C24.7689 152.413 24.8809 152.531 25.0089 152.712C25.1369 152.893 25.2436 153.149 25.3289 153.48C25.6062 152.968 25.9476 152.611 26.3529 152.408C26.7689 152.195 27.2969 152.088 27.9369 152.088C28.1822 152.088 28.4436 152.168 28.7209 152.328C29.0089 152.488 29.2542 152.675 29.4569 152.888C29.6489 153.123 29.8089 153.416 29.9369 153.768C30.0649 154.109 30.1289 154.419 30.1289 154.696C30.1289 154.856 30.1182 155.117 30.0969 155.48C30.0649 155.768 30.0489 156.072 30.0489 156.392C30.0489 157.139 30.1929 157.597 30.4809 157.768ZM36.8815 159.048C36.6362 159.048 36.4495 158.984 36.3215 158.856C36.1935 158.717 36.1295 158.579 36.1295 158.44C36.1935 158.056 36.2309 157.645 36.2415 157.208C36.2522 156.771 36.2575 156.509 36.2575 156.424V155.848C36.2575 155.411 36.2522 155.027 36.2415 154.696C36.2309 154.355 36.2202 154.067 36.2095 153.832C36.1669 152.893 36.1455 152.163 36.1455 151.64V151.144C36.1669 150.632 36.1935 150.184 36.2255 149.8C36.2362 149.651 36.3269 149.491 36.4975 149.32C36.6789 149.149 36.9242 149.043 37.2335 149C38.2469 148.893 39.5055 148.84 41.0095 148.84H41.5215C41.8949 148.84 42.2629 148.909 42.6255 149.048C42.9989 149.187 43.1855 149.421 43.1855 149.752C43.1855 149.976 43.1322 150.157 43.0255 150.296C42.9189 150.424 42.7109 150.488 42.4015 150.488C42.2629 150.488 42.1029 150.477 41.9215 150.456C41.7402 150.435 41.6122 150.419 41.5375 150.408C41.1322 150.344 40.8175 150.312 40.5935 150.312C39.3562 150.312 38.4175 150.397 37.7775 150.568V151.448V153.288C38.5029 153.288 39.2602 153.256 40.0495 153.192C40.6255 153.149 40.9989 153.128 41.1695 153.128C41.4149 153.128 41.6229 153.187 41.7935 153.304C41.9749 153.411 42.0655 153.576 42.0655 153.8C42.0655 154.355 41.6869 154.632 40.9295 154.632C40.7482 154.632 40.4762 154.653 40.1135 154.696C39.7082 154.739 39.3935 154.76 39.1695 154.76C39.0309 154.76 38.8335 154.749 38.5775 154.728C38.2469 154.707 38.0229 154.701 37.9055 154.712C37.8949 154.989 37.9002 155.421 37.9215 156.008L37.9375 157.08C37.9375 157.443 37.9322 157.715 37.9215 157.896C37.9109 158.067 37.8789 158.253 37.8255 158.456C37.7935 158.627 37.6975 158.771 37.5375 158.888C37.3775 158.995 37.1589 159.048 36.8815 159.048ZM44.1708 153.384C43.8934 153.192 43.7548 152.989 43.7548 152.776C43.7548 152.627 43.8188 152.488 43.9468 152.36C44.0748 152.232 44.2668 152.168 44.5228 152.168C44.8214 152.168 45.0881 152.248 45.3228 152.408C45.5681 152.557 45.7388 152.776 45.8348 153.064C46.0801 152.776 46.3574 152.547 46.6668 152.376C46.9868 152.205 47.3121 152.12 47.6428 152.12C48.0374 152.12 48.3948 152.227 48.7148 152.44C49.0348 152.653 49.1948 152.941 49.1948 153.304C49.1948 153.507 49.1041 153.715 48.9228 153.928C48.7521 154.141 48.5761 154.248 48.3948 154.248C48.2988 154.248 48.2134 154.227 48.1388 154.184C48.0748 154.131 47.9948 154.056 47.8988 153.96C47.7921 153.853 47.7014 153.779 47.6268 153.736C47.5521 153.683 47.4668 153.656 47.3708 153.656C47.2001 153.656 47.0401 153.683 46.8908 153.736C46.7414 153.789 46.6401 153.853 46.5868 153.928C46.4161 154.195 46.2881 154.435 46.2028 154.648C46.1281 154.861 46.0908 155.091 46.0908 155.336C46.0908 155.517 46.0854 155.661 46.0748 155.768L46.0588 156.68C46.0588 156.819 46.0641 156.973 46.0748 157.144C46.0854 157.315 46.0961 157.443 46.1068 157.528C46.1388 157.816 46.1548 158.093 46.1548 158.36C46.1548 158.541 46.0854 158.701 45.9468 158.84C45.8081 158.979 45.6374 159.048 45.4348 159.048C45.1148 159.048 44.8801 158.989 44.7308 158.872C44.5814 158.744 44.5068 158.515 44.5068 158.184L44.4908 157.16C44.4801 156.957 44.4748 156.669 44.4748 156.296L44.4908 155.24C44.5121 154.728 44.5228 154.312 44.5228 153.992C44.5228 153.875 44.4961 153.768 44.4428 153.672C44.4001 153.576 44.3094 153.48 44.1708 153.384ZM56.218 159.064C55.8554 159.064 55.578 159.011 55.386 158.904C55.194 158.787 54.986 158.573 54.762 158.264C54.4847 158.509 54.0687 158.707 53.514 158.856C52.97 159.005 52.5007 159.08 52.106 159.08C51.4554 159.08 50.9274 158.904 50.522 158.552C50.1274 158.189 49.93 157.661 49.93 156.968C49.93 156.669 50.01 156.397 50.17 156.152C50.3407 155.896 50.5594 155.672 50.826 155.48C51.1247 155.277 51.4767 155.117 51.882 155C52.298 154.883 52.6767 154.824 53.018 154.824C53.594 154.824 54.106 154.877 54.554 154.984V154.968C54.554 154.392 54.41 153.997 54.122 153.784C53.8447 153.56 53.3967 153.448 52.778 153.448C52.3834 153.448 52.042 153.624 51.754 153.976C51.6474 154.115 51.4234 154.184 51.082 154.184C50.9114 154.184 50.7834 154.115 50.698 153.976C50.6234 153.827 50.586 153.677 50.586 153.528C50.586 153.219 50.714 152.952 50.97 152.728C51.2367 152.504 51.5567 152.339 51.93 152.232C52.3034 152.115 52.65 152.056 52.97 152.056C53.2794 152.056 53.6474 152.12 54.074 152.248C54.5007 152.376 54.8474 152.547 55.114 152.76C55.434 153.037 55.6794 153.363 55.85 153.736C56.0314 154.099 56.122 154.499 56.122 154.936C56.122 155.075 56.1114 155.283 56.09 155.56C56.0687 155.88 56.058 156.141 56.058 156.344C56.058 156.44 56.0474 156.563 56.026 156.712C56.0047 156.904 55.994 157.064 55.994 157.192C55.994 157.331 56.0367 157.464 56.122 157.592C56.2074 157.72 56.3247 157.827 56.474 157.912C56.6127 157.987 56.7034 158.067 56.746 158.152C56.7887 158.237 56.81 158.333 56.81 158.44C56.81 158.547 56.7407 158.68 56.602 158.84C56.474 158.989 56.346 159.064 56.218 159.064ZM53.018 156.008C52.602 156.008 52.234 156.088 51.914 156.248C51.594 156.408 51.434 156.691 51.434 157.096C51.434 157.299 51.5034 157.469 51.642 157.608C51.7914 157.747 51.9514 157.816 52.122 157.816C52.5807 157.816 52.9647 157.768 53.274 157.672C53.5834 157.576 53.9567 157.4 54.394 157.144C54.4474 156.973 54.4794 156.733 54.49 156.424C54.49 156.307 54.4954 156.216 54.506 156.152C53.93 156.056 53.434 156.008 53.018 156.008ZM65.309 157.768C65.3624 157.789 65.4477 157.816 65.565 157.848C65.6824 157.88 65.7677 157.912 65.821 157.944C65.8744 157.976 65.901 158.024 65.901 158.088C65.9117 158.344 65.8157 158.557 65.613 158.728C65.421 158.888 65.1917 158.968 64.925 158.968C64.509 158.968 64.1837 158.856 63.949 158.632C63.7144 158.408 63.5437 158.067 63.437 157.608C63.3944 157.427 63.373 157.176 63.373 156.856C63.373 156.675 63.3837 156.381 63.405 155.976C63.4264 155.549 63.437 155.208 63.437 154.952C63.437 154.493 63.389 154.147 63.293 153.912C63.197 153.667 62.9677 153.544 62.605 153.544C62.2317 153.544 61.8957 153.693 61.597 153.992C61.309 154.291 61.0637 154.739 60.861 155.336C60.5837 156.168 60.429 157.272 60.397 158.648C60.397 158.723 60.317 158.813 60.157 158.92C60.0077 159.016 59.8264 159.064 59.613 159.064C59.2184 159.064 58.973 158.856 58.877 158.44L58.861 158.168C58.861 158.072 58.8717 157.96 58.893 157.832C59.021 157.085 59.085 156.435 59.085 155.88C59.085 155.635 59.0797 155.443 59.069 155.304L59.053 154.552C59.053 154.296 58.989 154.051 58.861 153.816C58.733 153.571 58.5837 153.448 58.413 153.448C58.3597 153.448 58.285 153.469 58.189 153.512C58.093 153.544 58.013 153.56 57.949 153.56C57.8424 153.56 57.725 153.507 57.597 153.4C57.4797 153.293 57.421 153.181 57.421 153.064C57.421 152.84 57.4957 152.659 57.645 152.52C57.805 152.392 57.9597 152.291 58.109 152.216C58.269 152.141 58.4504 152.104 58.653 152.104C58.8237 152.104 58.9624 152.12 59.069 152.152C59.1757 152.184 59.3197 152.253 59.501 152.36C59.6077 152.413 59.7304 152.563 59.869 152.808C60.0077 153.053 60.1144 153.4 60.189 153.848C60.4024 153.453 60.7597 153.037 61.261 152.6C61.6344 152.259 62.173 152.088 62.877 152.088C63.517 152.088 64.0237 152.323 64.397 152.792C64.7704 153.251 64.957 153.885 64.957 154.696C64.957 154.856 64.9464 155.117 64.925 155.48C64.893 155.768 64.877 156.072 64.877 156.392C64.877 157.139 65.021 157.597 65.309 157.768ZM71.5711 155.4C71.6565 155.453 71.8218 155.555 72.0671 155.704C72.3231 155.843 72.4938 156.008 72.5791 156.2C72.6645 156.392 72.7071 156.659 72.7071 157C72.7071 157.384 72.5951 157.725 72.3711 158.024C72.1471 158.312 71.8591 158.536 71.5071 158.696C71.2511 158.813 70.9365 158.904 70.5631 158.968C70.2005 159.032 69.9125 159.064 69.6991 159.064C69.4858 159.064 69.2085 159.032 68.8671 158.968C68.5365 158.904 68.3071 158.845 68.1791 158.792C67.8485 158.6 67.5605 158.365 67.3151 158.088C67.0805 157.811 66.9631 157.528 66.9631 157.24C66.9631 157.027 67.0325 156.861 67.1711 156.744C67.3098 156.616 67.4911 156.552 67.7151 156.552C67.8218 156.552 67.9338 156.595 68.0511 156.68C68.1685 156.755 68.2485 156.835 68.2911 156.92C68.4085 157.197 68.6058 157.405 68.8831 157.544C69.1605 157.683 69.4431 157.752 69.7311 157.752C70.1045 157.752 70.4511 157.693 70.7711 157.576C71.0911 157.448 71.2511 157.277 71.2511 157.064C71.2511 156.968 71.2245 156.893 71.1711 156.84C71.1285 156.776 71.0645 156.712 70.9791 156.648C70.8298 156.541 70.6058 156.456 70.3071 156.392C70.0085 156.317 69.8165 156.269 69.7311 156.248C69.2938 156.152 68.8671 156.008 68.4511 155.816C68.0351 155.613 67.7045 155.373 67.4591 155.096C67.2138 154.819 67.0911 154.461 67.0911 154.024C67.0911 153.736 67.1978 153.437 67.4111 153.128C67.6245 152.808 67.8645 152.584 68.1311 152.456C68.3231 152.381 68.6431 152.301 69.0911 152.216C69.5498 152.131 69.8591 152.088 70.0191 152.088C70.2645 152.088 70.5311 152.115 70.8191 152.168C71.1071 152.211 71.3258 152.285 71.4751 152.392C71.7631 152.563 71.9978 152.744 72.1791 152.936C72.3605 153.117 72.4511 153.325 72.4511 153.56C72.4511 153.677 72.4245 153.805 72.3711 153.944C72.3178 154.072 72.2538 154.152 72.1791 154.184C72.0191 154.259 71.8325 154.296 71.6191 154.296C71.5231 154.296 71.4431 154.269 71.3791 154.216C71.3258 154.163 71.2511 154.077 71.1551 153.96C71.0378 153.779 70.9258 153.672 70.8191 153.64C70.6911 153.608 70.5045 153.571 70.2591 153.528C70.0138 153.475 69.8485 153.448 69.7631 153.448C69.5178 153.448 69.2618 153.517 68.9951 153.656C68.7391 153.795 68.6111 153.955 68.6111 154.136C68.6111 154.232 68.6485 154.307 68.7231 154.36C68.8085 154.413 68.8938 154.461 68.9791 154.504C69.0751 154.547 69.1391 154.573 69.1711 154.584C69.3951 154.691 69.6405 154.781 69.9071 154.856C70.1845 154.931 70.3551 154.979 70.4191 155C70.9951 155.139 71.3791 155.272 71.5711 155.4ZM75.0001 148.728C75.3735 148.76 75.6935 148.861 75.9601 149.032C76.2375 149.192 76.3761 149.437 76.3761 149.768C76.3761 150.013 76.2641 150.211 76.0401 150.36C75.8161 150.499 75.5388 150.568 75.2081 150.568C74.8988 150.568 74.6855 150.488 74.5681 150.328C74.4508 150.168 74.3921 150.003 74.3921 149.832C74.3921 149.523 74.4295 149.261 74.5041 149.048C74.5788 148.824 74.7441 148.717 75.0001 148.728ZM74.6801 155.336V154.872C74.6801 154.339 74.6535 153.853 74.6001 153.416C74.5575 152.968 74.5308 152.691 74.5201 152.584C74.5308 152.467 74.6108 152.355 74.7601 152.248C74.9095 152.141 75.0428 152.088 75.1601 152.088C75.3628 152.088 75.5655 152.131 75.7681 152.216C75.9815 152.291 76.1148 152.387 76.1681 152.504C76.2215 152.899 76.2481 153.203 76.2481 153.416C76.2481 153.885 76.2695 154.653 76.3121 155.72L76.3281 156.344L76.3601 156.952C76.3708 157.123 76.3815 157.325 76.3921 157.56C76.4028 157.795 76.4081 158.061 76.4081 158.36C76.4081 158.563 76.3068 158.733 76.1041 158.872C75.9121 159.011 75.7095 159.08 75.4961 159.08C75.1868 159.08 74.9681 159.011 74.8401 158.872C74.7228 158.733 74.6641 158.515 74.6641 158.216L74.6801 155.336ZM82.7586 155.544C82.844 155.597 83.0093 155.699 83.2546 155.848C83.5106 155.987 83.6813 156.152 83.7666 156.344C83.852 156.536 83.8946 156.803 83.8946 157.144C83.8946 157.528 83.7826 157.869 83.5586 158.168C83.3346 158.456 83.0466 158.68 82.6946 158.84C82.4493 158.947 82.1826 159.011 81.8946 159.032C81.6173 159.053 81.2813 159.064 80.8866 159.064C80.6733 159.064 80.396 159.032 80.0546 158.968C79.724 158.904 79.4946 158.845 79.3666 158.792C79.0253 158.6 78.7373 158.376 78.5026 158.12C78.268 157.864 78.1506 157.603 78.1506 157.336C78.1506 157.123 78.22 156.952 78.3586 156.824C78.4973 156.696 78.6786 156.632 78.9026 156.632C79.02 156.632 79.132 156.664 79.2386 156.728C79.356 156.781 79.436 156.845 79.4786 156.92C79.596 157.197 79.7933 157.405 80.0706 157.544C80.348 157.683 80.6306 157.752 80.9186 157.752C81.932 157.752 82.4386 157.571 82.4386 157.208C82.4386 157.112 82.412 157.037 82.3586 156.984C82.316 156.92 82.252 156.856 82.1666 156.792C82.028 156.696 81.8306 156.595 81.5746 156.488C81.3293 156.381 81.1106 156.301 80.9186 156.248C80.4813 156.152 80.0546 156.008 79.6386 155.816C79.2546 155.624 78.94 155.373 78.6946 155.064C78.4493 154.744 78.3266 154.355 78.3266 153.896C78.3266 153.619 78.428 153.347 78.6306 153.08C78.844 152.803 79.0893 152.595 79.3666 152.456C79.5586 152.381 79.8733 152.301 80.3106 152.216C80.748 152.131 81.0466 152.088 81.2066 152.088C81.452 152.088 81.7186 152.115 82.0066 152.168C82.2946 152.211 82.5133 152.285 82.6626 152.392C82.9506 152.563 83.1853 152.744 83.3666 152.936C83.548 153.117 83.6386 153.325 83.6386 153.56C83.6386 153.677 83.612 153.805 83.5586 153.944C83.5053 154.072 83.4413 154.152 83.3666 154.184C83.2066 154.259 83.02 154.296 82.8066 154.296C82.7106 154.296 82.6306 154.269 82.5666 154.216C82.5133 154.163 82.4386 154.077 82.3426 153.96C82.2253 153.779 82.1133 153.672 82.0066 153.64C81.8786 153.608 81.692 153.571 81.4466 153.528C81.2013 153.475 81.036 153.448 80.9506 153.448C80.684 153.448 80.428 153.501 80.1826 153.608C79.948 153.715 79.8306 153.859 79.8306 154.04C79.8306 154.253 80.0066 154.435 80.3586 154.584C80.5826 154.691 80.828 154.781 81.0946 154.856C81.372 154.931 81.5426 154.979 81.6066 155C81.756 155.032 81.948 155.107 82.1826 155.224C82.428 155.341 82.62 155.448 82.7586 155.544ZM91.1476 153.656C91.1476 153.88 91.0996 154.051 91.0036 154.168C90.9183 154.285 90.7743 154.344 90.5716 154.344C90.4223 154.344 90.2943 154.307 90.1876 154.232C90.0916 154.157 89.9636 154.029 89.8036 153.848C89.6756 153.709 89.5263 153.597 89.3556 153.512C89.1956 153.427 89.0516 153.384 88.9236 153.384C88.273 153.384 87.8036 153.523 87.5156 153.8C87.3343 153.992 87.185 154.248 87.0676 154.568C86.9503 154.877 86.8916 155.197 86.8916 155.528C86.8916 156.008 86.961 156.392 87.0996 156.68C87.2383 156.968 87.4836 157.213 87.8356 157.416C87.9636 157.491 88.145 157.555 88.3796 157.608C88.6143 157.651 88.8063 157.672 88.9556 157.672C89.1583 157.672 89.3716 157.619 89.5956 157.512C89.8196 157.395 90.0116 157.245 90.1716 157.064C90.3743 156.829 90.6196 156.712 90.9076 156.712C91.025 156.712 91.1583 156.771 91.3076 156.888C91.4676 157.005 91.5476 157.144 91.5476 157.304C91.5476 157.624 91.393 157.923 91.0836 158.2C90.785 158.467 90.417 158.68 89.9796 158.84C89.5423 158.989 89.137 159.064 88.7636 159.064C88.1343 159.064 87.5476 158.92 87.0036 158.632C86.4703 158.344 86.0436 157.949 85.7236 157.448C85.4036 156.936 85.2436 156.36 85.2436 155.72C85.2436 155.165 85.345 154.627 85.5476 154.104C85.761 153.581 86.0436 153.155 86.3956 152.824C86.6836 152.557 87.041 152.36 87.4676 152.232C87.8943 152.104 88.3423 152.04 88.8116 152.04C89.1423 152.04 89.4836 152.104 89.8356 152.232C90.1876 152.36 90.4703 152.531 90.6836 152.744C90.993 153.053 91.1476 153.357 91.1476 153.656ZM99.2396 153.864C99.325 154.013 99.3943 154.232 99.4476 154.52C99.501 154.797 99.5276 155.048 99.5276 155.272C99.5276 155.688 99.437 156.28 99.2556 157.048C98.5196 158.392 97.4316 159.064 95.9916 159.064C95.4583 159.064 94.9143 158.888 94.3596 158.536C93.805 158.184 93.421 157.779 93.2076 157.32C92.9196 156.403 92.7756 155.821 92.7756 155.576C92.7756 155.149 92.8663 154.696 93.0476 154.216C93.2396 153.736 93.4796 153.32 93.7676 152.968C93.949 152.723 94.2743 152.515 94.7436 152.344C95.213 152.163 95.6396 152.072 96.0236 152.072C96.7703 152.072 97.405 152.216 97.9276 152.504C98.4503 152.781 98.8876 153.235 99.2396 153.864ZM97.8476 156.44C97.901 156.301 97.9276 155.944 97.9276 155.368C97.9276 155.059 97.869 154.755 97.7516 154.456C97.645 154.157 97.485 153.901 97.2716 153.688C97.2503 153.667 97.1916 153.635 97.0956 153.592C96.9996 153.539 96.8663 153.491 96.6956 153.448C96.5356 153.395 96.349 153.368 96.1356 153.368C95.5383 153.368 95.101 153.608 94.8236 154.088C94.5463 154.568 94.4076 155.112 94.4076 155.72C94.4076 155.827 94.4343 156.029 94.4876 156.328C94.5516 156.627 94.605 156.813 94.6476 156.888C94.6796 156.963 94.7596 157.069 94.8876 157.208C95.0263 157.336 95.1916 157.453 95.3836 157.56C95.5863 157.656 95.7943 157.704 96.0076 157.704C96.4876 157.704 96.8716 157.592 97.1596 157.368C97.4476 157.133 97.677 156.824 97.8476 156.44ZM111.069 148.984C111.069 149.091 111.042 149.384 110.989 149.864C110.872 151.037 110.813 152.227 110.813 153.432C110.813 154.488 110.829 155.293 110.861 155.848C110.893 156.403 110.973 156.829 111.101 157.128C111.229 157.416 111.426 157.56 111.693 157.56C112.205 157.56 112.461 157.731 112.461 158.072C112.461 158.296 112.349 158.488 112.125 158.648C111.901 158.797 111.656 158.872 111.389 158.872C111.069 158.872 110.77 158.797 110.493 158.648C110.216 158.499 109.997 158.269 109.837 157.96C109.613 158.291 109.288 158.557 108.861 158.76C108.445 158.952 108.04 159.048 107.645 159.048C107.037 159.048 106.498 158.92 106.029 158.664C105.56 158.408 105.197 158.061 104.941 157.624C104.685 157.176 104.557 156.685 104.557 156.152C104.557 155.64 104.616 155.149 104.733 154.68C104.861 154.2 105.032 153.805 105.245 153.496C105.533 153.091 105.917 152.771 106.397 152.536C106.888 152.291 107.368 152.168 107.837 152.168C108.125 152.168 108.397 152.227 108.653 152.344C108.909 152.451 109.133 152.584 109.325 152.744C109.325 152.029 109.32 151.581 109.309 151.4V151.064C109.309 150.072 109.373 149.347 109.501 148.888C109.618 148.44 109.901 148.216 110.349 148.216C110.594 148.216 110.776 148.269 110.893 148.376C111.01 148.483 111.069 148.685 111.069 148.984ZM106.141 156.12C106.141 156.611 106.28 157.005 106.557 157.304C106.845 157.603 107.186 157.752 107.581 157.752C108.146 157.752 108.562 157.576 108.829 157.224C109.106 156.872 109.245 156.419 109.245 155.864L109.229 154.28C108.813 153.821 108.381 153.592 107.933 153.592C107.624 153.592 107.33 153.672 107.053 153.832C106.786 153.981 106.573 154.211 106.413 154.52C106.232 154.872 106.141 155.405 106.141 156.12ZM113.353 155.336C113.353 154.685 113.497 154.147 113.785 153.72C114.073 153.283 114.473 152.872 114.985 152.488C115.134 152.381 115.385 152.291 115.737 152.216C116.089 152.131 116.398 152.088 116.665 152.088C116.985 152.088 117.321 152.157 117.673 152.296C118.036 152.424 118.329 152.573 118.553 152.744C118.948 153.032 119.22 153.368 119.369 153.752C119.518 154.125 119.593 154.573 119.593 155.096C119.593 155.32 119.465 155.539 119.209 155.752C118.964 155.955 118.697 156.056 118.409 156.056L117.801 156.04C117.492 156.04 117.049 156.051 116.473 156.072L116.137 156.088C115.902 156.109 115.726 156.12 115.609 156.12C115.438 156.12 115.204 156.099 114.905 156.056C114.948 156.557 115.134 156.952 115.465 157.24C115.796 157.517 116.153 157.656 116.537 157.656C117.209 157.656 117.678 157.523 117.945 157.256C118.169 157.096 118.318 156.995 118.393 156.952C118.468 156.909 118.585 156.888 118.745 156.888C118.916 156.888 119.065 156.968 119.193 157.128C119.321 157.288 119.385 157.448 119.385 157.608C119.385 157.789 119.273 157.976 119.049 158.168C118.836 158.349 118.542 158.541 118.169 158.744C117.966 158.829 117.689 158.904 117.337 158.968C116.985 159.032 116.692 159.064 116.457 159.064C116.084 159.064 115.668 158.957 115.209 158.744C114.75 158.52 114.409 158.275 114.185 158.008C113.961 157.741 113.764 157.363 113.593 156.872C113.433 156.381 113.353 155.869 113.353 155.336ZM116.537 154.904C117.294 154.904 117.849 154.877 118.201 154.824C118.18 154.515 118.084 154.264 117.913 154.072C117.742 153.869 117.508 153.699 117.209 153.56C117.113 153.517 117.028 153.485 116.953 153.464C116.878 153.443 116.793 153.432 116.697 153.432C116.206 153.432 115.79 153.565 115.449 153.832C115.118 154.099 114.921 154.44 114.857 154.856C115.39 154.888 115.95 154.904 116.537 154.904ZM132.301 158.76C132.162 158.579 132.045 158.381 131.949 158.168C131.853 157.944 131.751 157.677 131.645 157.368C131.623 157.315 131.559 157.155 131.453 156.888C131.357 156.621 131.245 156.392 131.117 156.2C130.445 156.296 129.895 156.344 129.469 156.344C129.234 156.344 128.973 156.339 128.685 156.328C128.407 156.307 128.199 156.296 128.061 156.296C127.527 156.253 127.101 156.232 126.781 156.232C126.653 156.403 126.541 156.584 126.445 156.776C126.359 156.968 126.247 157.256 126.109 157.64C125.917 158.195 125.751 158.589 125.613 158.824C125.517 158.984 125.33 159.064 125.053 159.064C124.818 159.064 124.599 159.016 124.397 158.92C124.205 158.813 124.109 158.669 124.109 158.488C124.194 158.083 124.327 157.656 124.509 157.208C124.701 156.749 124.973 156.141 125.325 155.384L125.965 153.816C126.317 152.92 126.637 152.152 126.925 151.512C127.223 150.872 127.613 150.115 128.093 149.24C128.157 149.112 128.263 149.005 128.413 148.92C128.562 148.824 128.727 148.776 128.909 148.776C129.111 148.776 129.255 148.792 129.341 148.824C129.437 148.845 129.511 148.888 129.565 148.952C129.618 149.005 129.698 149.123 129.805 149.304C130.167 149.869 130.477 150.451 130.733 151.048C130.999 151.645 131.335 152.472 131.741 153.528L132.077 154.376C132.375 155.144 132.631 155.789 132.845 156.312C133.069 156.824 133.314 157.293 133.581 157.72C133.751 157.997 133.837 158.189 133.837 158.296C133.837 158.552 133.757 158.749 133.597 158.888C133.447 159.016 133.25 159.08 133.005 159.08C132.695 159.08 132.461 158.973 132.301 158.76ZM130.653 154.888C130.482 154.525 130.237 153.896 129.917 153C129.586 152.04 129.255 151.277 128.925 150.712C128.722 151.224 128.423 151.885 128.029 152.696C127.762 153.197 127.458 153.923 127.117 154.872C127.799 154.957 128.535 155 129.325 155C129.89 155 130.333 154.963 130.653 154.888ZM139.415 155.544C139.5 155.597 139.666 155.699 139.911 155.848C140.167 155.987 140.338 156.152 140.423 156.344C140.508 156.536 140.551 156.803 140.551 157.144C140.551 157.528 140.439 157.869 140.215 158.168C139.991 158.456 139.703 158.68 139.351 158.84C139.106 158.947 138.839 159.011 138.551 159.032C138.274 159.053 137.938 159.064 137.543 159.064C137.33 159.064 137.052 159.032 136.711 158.968C136.38 158.904 136.151 158.845 136.023 158.792C135.682 158.6 135.394 158.376 135.159 158.12C134.924 157.864 134.807 157.603 134.807 157.336C134.807 157.123 134.876 156.952 135.015 156.824C135.154 156.696 135.335 156.632 135.559 156.632C135.676 156.632 135.788 156.664 135.895 156.728C136.012 156.781 136.092 156.845 136.135 156.92C136.252 157.197 136.45 157.405 136.727 157.544C137.004 157.683 137.287 157.752 137.575 157.752C138.588 157.752 139.095 157.571 139.095 157.208C139.095 157.112 139.068 157.037 139.015 156.984C138.972 156.92 138.908 156.856 138.823 156.792C138.684 156.696 138.487 156.595 138.231 156.488C137.986 156.381 137.767 156.301 137.575 156.248C137.138 156.152 136.711 156.008 136.295 155.816C135.911 155.624 135.596 155.373 135.351 155.064C135.106 154.744 134.983 154.355 134.983 153.896C134.983 153.619 135.084 153.347 135.287 153.08C135.5 152.803 135.746 152.595 136.023 152.456C136.215 152.381 136.53 152.301 136.967 152.216C137.404 152.131 137.703 152.088 137.863 152.088C138.108 152.088 138.375 152.115 138.663 152.168C138.951 152.211 139.17 152.285 139.319 152.392C139.607 152.563 139.842 152.744 140.023 152.936C140.204 153.117 140.295 153.325 140.295 153.56C140.295 153.677 140.268 153.805 140.215 153.944C140.162 154.072 140.098 154.152 140.023 154.184C139.863 154.259 139.676 154.296 139.463 154.296C139.367 154.296 139.287 154.269 139.223 154.216C139.17 154.163 139.095 154.077 138.999 153.96C138.882 153.779 138.77 153.672 138.663 153.64C138.535 153.608 138.348 153.571 138.103 153.528C137.858 153.475 137.692 153.448 137.607 153.448C137.34 153.448 137.084 153.501 136.839 153.608C136.604 153.715 136.487 153.859 136.487 154.04C136.487 154.253 136.663 154.435 137.015 154.584C137.239 154.691 137.484 154.781 137.751 154.856C138.028 154.931 138.199 154.979 138.263 155C138.412 155.032 138.604 155.107 138.839 155.224C139.084 155.341 139.276 155.448 139.415 155.544ZM144.348 148.856C144.572 148.856 144.748 148.904 144.876 149C145.015 149.096 145.084 149.219 145.084 149.368C145.084 149.656 144.945 149.939 144.668 150.216C144.401 150.483 144.119 150.701 143.82 150.872C143.66 150.968 143.452 151.048 143.196 151.112C142.951 151.176 142.764 151.208 142.636 151.208C142.412 151.208 142.3 151.101 142.3 150.888C142.3 150.824 142.321 150.765 142.364 150.712C142.407 150.659 142.497 150.579 142.636 150.472C142.679 150.429 142.743 150.371 142.828 150.296C142.924 150.211 143.015 150.115 143.1 150.008C143.185 149.891 143.271 149.736 143.356 149.544C143.484 149.288 143.623 149.112 143.772 149.016C143.932 148.909 144.124 148.856 144.348 148.856ZM144.156 155.816V156.28C144.156 156.696 144.167 157.091 144.188 157.464C144.22 157.827 144.257 158.195 144.3 158.568C144.289 158.675 144.209 158.787 144.06 158.904C143.911 159.011 143.777 159.064 143.66 159.064C143.457 159.064 143.249 159.027 143.036 158.952C142.833 158.867 142.711 158.765 142.668 158.648C142.604 158.307 142.572 158.003 142.572 157.736C142.572 156.861 142.545 155.88 142.492 154.792C142.449 153.832 142.428 153.155 142.428 152.76C142.428 152.568 142.524 152.403 142.716 152.264C142.908 152.125 143.111 152.056 143.324 152.056C143.633 152.056 143.847 152.125 143.964 152.264C144.092 152.403 144.156 152.621 144.156 152.92V155.816ZM150.698 155.336C151.124 155.581 151.423 155.827 151.594 156.072C151.764 156.307 151.85 156.616 151.85 157C151.85 157.384 151.738 157.725 151.514 158.024C151.29 158.312 151.002 158.536 150.65 158.696C150.394 158.813 150.074 158.904 149.69 158.968C149.316 159.032 149.023 159.064 148.81 159.064C148.436 159.064 148.031 158.995 147.594 158.856C147.156 158.717 146.783 158.52 146.474 158.264C146.175 158.008 146.026 157.709 146.026 157.368C146.026 157.155 146.095 156.989 146.234 156.872C146.372 156.744 146.554 156.68 146.778 156.68C146.959 156.68 147.151 156.808 147.354 157.064C147.556 157.288 147.791 157.459 148.058 157.576C148.335 157.693 148.607 157.752 148.874 157.752C149.887 157.752 150.394 157.523 150.394 157.064C150.394 156.968 150.362 156.877 150.298 156.792C150.234 156.696 150.175 156.632 150.122 156.6C150.026 156.525 149.892 156.461 149.722 156.408C149.551 156.355 149.38 156.312 149.21 156.28C149.039 156.237 148.911 156.205 148.826 156.184C148.74 156.163 148.559 156.125 148.282 156.072C148.015 156.019 147.759 155.928 147.514 155.8C147.108 155.608 146.778 155.373 146.522 155.096C146.276 154.819 146.154 154.461 146.154 154.024C146.154 153.779 146.212 153.533 146.33 153.288C146.458 153.032 146.628 152.84 146.842 152.712C147.162 152.509 147.514 152.355 147.898 152.248C148.282 152.141 148.639 152.088 148.97 152.088C149.236 152.088 149.535 152.115 149.866 152.168C150.207 152.221 150.452 152.296 150.602 152.392C150.879 152.541 151.082 152.696 151.21 152.856C151.338 153.016 151.402 153.219 151.402 153.464C151.402 153.581 151.375 153.699 151.322 153.816C151.268 153.923 151.204 153.997 151.13 154.04C150.959 154.104 150.81 154.136 150.682 154.136C150.586 154.136 150.506 154.12 150.442 154.088C150.378 154.045 150.319 154.003 150.266 153.96C150.223 153.917 150.196 153.891 150.186 153.88C150.047 153.731 149.892 153.613 149.722 153.528C149.551 153.443 149.3 153.4 148.97 153.4C148.756 153.4 148.548 153.432 148.346 153.496C148.154 153.549 148.004 153.619 147.898 153.704C147.812 153.768 147.754 153.827 147.722 153.88C147.69 153.923 147.674 153.981 147.674 154.056C147.674 154.355 147.972 154.573 148.57 154.712C149.178 154.851 149.498 154.925 149.53 154.936C149.594 154.957 149.77 155.011 150.058 155.096C150.356 155.181 150.57 155.261 150.698 155.336Z" fill="#363A9F"/>
<defs>
<radialGradient id="paint0_radial_1_12" cx="0" cy="0" r="1" gradientUnits="userSpaceOnUse" gradientTransform="translate(78.7584 38.6944) rotate(-8) scale(49.2217 7.23749)">
<stop stop-color="#D1E4FF"/>
<stop offset="1" stop-color="#D1E4FF" stop-opacity="0.5"/>
</radialGradient>
<radialGradient id="paint1_radial_1_12" cx="0" cy="0" r="1" gradientUnits="userSpaceOnUse" gradientTransform="translate(79.9743 61.9438) rotate(82) scale(55.7067 7.23749)">
<stop stop-color="#CEDAEC"/>
<stop offset="1" stop-color="#D1E4FF" stop-opacity="0.5"/>
</radialGradient>
<radialGradient id="paint2_radial_1_12" cx="0" cy="0" r="1" gradientUnits="userSpaceOnUse" gradientTransform="translate(14 23) rotate(19.9831) scale(140.456 144.334)">
<stop stop-color="#E2DCA9"/>
<stop offset="1" stop-color="#E3CD00"/>
</radialGradient>
</defs>
</svg>
